<svg width="776" height="549" viewBox="0 0 776 549" fill="none" xmlns="http://www.w3.org/2000/svg">
<g clip-path="url(#clip0_37_3174)">
<path d="M338.513 219.837H338.233V217.983L337.672 218.189V217.936L338.471 217.638H338.515V219.84L338.513 219.837Z" fill="#F0F3F5"/>
<path d="M340.701 218.903C340.701 219.229 340.646 219.473 340.534 219.631C340.422 219.789 340.248 219.868 340.013 219.868C339.777 219.868 339.606 219.791 339.492 219.635C339.379 219.479 339.32 219.248 339.316 218.941V218.569C339.316 218.248 339.373 218.009 339.483 217.851C339.593 217.695 339.769 217.616 340.006 217.616C340.244 217.616 340.415 217.69 340.527 217.842C340.639 217.994 340.697 218.226 340.699 218.541V218.901L340.701 218.903ZM340.424 218.523C340.424 218.288 340.391 218.114 340.325 218.007C340.259 217.899 340.153 217.844 340.011 217.844C339.868 217.844 339.764 217.897 339.698 218.005C339.632 218.112 339.599 218.277 339.597 218.499V218.945C339.597 219.182 339.632 219.356 339.7 219.47C339.769 219.582 339.872 219.64 340.013 219.64C340.153 219.64 340.252 219.587 340.318 219.479C340.384 219.374 340.42 219.204 340.424 218.976V218.519V218.523Z" fill="#F0F3F5"/>
<path d="M339.031 209.5H337.595V209.3L338.354 208.456C338.466 208.328 338.545 208.225 338.587 208.146C338.628 208.067 338.65 207.983 338.65 207.898C338.65 207.783 338.615 207.689 338.545 207.616C338.477 207.544 338.384 207.506 338.268 207.506C338.129 207.506 338.022 207.546 337.945 207.625C337.868 207.704 337.828 207.814 337.828 207.955H337.551C337.551 207.753 337.617 207.59 337.747 207.465C337.876 207.339 338.05 207.278 338.268 207.278C338.472 207.278 338.633 207.331 338.752 207.438C338.87 207.546 338.93 207.687 338.93 207.865C338.93 208.08 338.791 208.337 338.516 208.636L337.929 209.273H339.029V209.502L339.031 209.5Z" fill="#F0F3F5"/>
<path d="M340.701 208.566C340.701 208.891 340.646 209.135 340.534 209.293C340.422 209.451 340.248 209.53 340.013 209.53C339.777 209.53 339.606 209.454 339.492 209.298C339.379 209.141 339.32 208.911 339.316 208.603V208.232C339.316 207.909 339.373 207.671 339.483 207.513C339.593 207.357 339.769 207.278 340.006 207.278C340.244 207.278 340.415 207.353 340.527 207.504C340.639 207.656 340.697 207.889 340.699 208.203V208.564L340.701 208.566ZM340.424 208.186C340.424 207.95 340.391 207.777 340.325 207.669C340.259 207.561 340.153 207.506 340.011 207.506C339.868 207.506 339.764 207.559 339.698 207.667C339.632 207.775 339.599 207.939 339.597 208.161V208.607C339.597 208.845 339.632 209.018 339.7 209.133C339.769 209.245 339.872 209.302 340.013 209.302C340.153 209.302 340.252 209.249 340.318 209.141C340.384 209.036 340.42 208.867 340.424 208.638V208.181V208.186Z" fill="#F0F3F5"/>
<path d="M338 197.934H338.208C338.34 197.934 338.444 197.896 338.519 197.83C338.596 197.762 338.633 197.672 338.633 197.558C338.633 197.301 338.505 197.173 338.25 197.173C338.129 197.173 338.035 197.208 337.962 197.277C337.89 197.345 337.854 197.437 337.854 197.549H337.575C337.575 197.375 337.639 197.23 337.767 197.116C337.894 197.002 338.055 196.945 338.25 196.945C338.446 196.945 338.62 197 338.736 197.11C338.853 197.219 338.912 197.371 338.912 197.567C338.912 197.661 338.881 197.753 338.818 197.844C338.756 197.931 338.672 198 338.567 198.044C338.688 198.081 338.78 198.145 338.846 198.233C338.912 198.32 338.945 198.428 338.945 198.556C338.945 198.751 338.881 198.909 338.752 199.024C338.624 199.14 338.455 199.197 338.25 199.197C338.046 199.197 337.876 199.142 337.749 199.03C337.619 198.918 337.555 198.773 337.555 198.589H337.835C337.835 198.703 337.872 198.797 337.947 198.865C338.022 198.936 338.123 198.969 338.25 198.969C338.384 198.969 338.488 198.934 338.56 198.863C338.631 198.793 338.666 198.692 338.666 198.56C338.666 198.428 338.626 198.334 338.549 198.265C338.47 198.197 338.358 198.162 338.211 198.16H338.002V197.934H338Z" fill="#F0F3F5"/>
<path d="M340.701 198.23C340.701 198.556 340.646 198.799 340.534 198.958C340.422 199.116 340.248 199.195 340.013 199.195C339.777 199.195 339.606 199.118 339.492 198.962C339.379 198.806 339.32 198.575 339.316 198.268V197.896C339.316 197.575 339.373 197.336 339.483 197.178C339.593 197.022 339.769 196.942 340.006 196.942C340.244 196.942 340.415 197.017 340.527 197.169C340.639 197.32 340.697 197.553 340.699 197.868V198.228L340.701 198.23ZM340.424 197.848C340.424 197.613 340.391 197.439 340.325 197.331C340.259 197.224 340.153 197.169 340.011 197.169C339.868 197.169 339.764 197.222 339.698 197.329C339.632 197.437 339.599 197.602 339.597 197.824V198.27C339.597 198.507 339.632 198.681 339.7 198.795C339.769 198.907 339.872 198.964 340.013 198.964C340.153 198.964 340.252 198.912 340.318 198.804C340.384 198.698 340.42 198.529 340.424 198.301V197.843V197.848Z" fill="#F0F3F5"/>
<path d="M338.771 188.093H339.075V188.321H338.771V188.829H338.492V188.321H337.494V188.156L338.477 186.638H338.774V188.093H338.771ZM337.808 188.093H338.492V187.018L338.459 187.08L337.811 188.095L337.808 188.093Z" fill="#F0F3F5"/>
<path d="M340.701 187.893C340.701 188.218 340.646 188.462 340.534 188.62C340.422 188.778 340.248 188.857 340.013 188.857C339.777 188.857 339.606 188.781 339.492 188.624C339.379 188.468 339.32 188.238 339.316 187.93V187.559C339.316 187.236 339.373 186.998 339.483 186.84C339.593 186.684 339.769 186.605 340.006 186.605C340.244 186.605 340.415 186.68 340.527 186.831C340.639 186.983 340.697 187.216 340.699 187.53V187.89L340.701 187.893ZM340.424 187.512C340.424 187.277 340.391 187.104 340.325 186.996C340.259 186.888 340.153 186.833 340.011 186.833C339.868 186.833 339.764 186.886 339.698 186.994C339.632 187.102 339.599 187.266 339.597 187.488V187.934C339.597 188.172 339.632 188.345 339.7 188.46C339.769 188.572 339.872 188.629 340.013 188.629C340.153 188.629 340.252 188.576 340.318 188.468C340.384 188.363 340.42 188.194 340.424 187.965V187.508V187.512Z" fill="#F0F3F5"/>
<path d="M337.722 177.395L337.835 176.302H338.958V176.559H338.072L338.006 177.157C338.112 177.094 338.235 177.063 338.371 177.063C338.571 177.063 338.73 177.129 338.848 177.261C338.965 177.392 339.024 177.57 339.024 177.795C339.024 178.019 338.963 178.199 338.842 178.329C338.719 178.458 338.549 178.524 338.329 178.524C338.136 178.524 337.978 178.471 337.857 178.364C337.733 178.256 337.663 178.109 337.646 177.918H337.909C337.927 178.043 337.971 178.137 338.044 178.201C338.116 178.265 338.211 178.296 338.329 178.296C338.459 178.296 338.56 178.252 338.635 178.164C338.71 178.076 338.747 177.953 338.747 177.799C338.747 177.652 338.708 177.535 338.626 177.445C338.547 177.357 338.439 177.311 338.307 177.311C338.186 177.311 338.09 177.337 338.022 177.39L337.949 177.452L337.725 177.395H337.722Z" fill="#F0F3F5"/>
<path d="M340.701 177.557C340.701 177.882 340.646 178.126 340.534 178.285C340.422 178.443 340.248 178.522 340.013 178.522C339.777 178.522 339.606 178.445 339.492 178.289C339.379 178.133 339.32 177.902 339.316 177.595V177.223C339.316 176.9 339.373 176.663 339.483 176.505C339.593 176.349 339.769 176.269 340.006 176.269C340.244 176.269 340.415 176.344 340.527 176.496C340.639 176.647 340.697 176.88 340.699 177.195V177.555L340.701 177.557ZM340.424 177.177C340.424 176.942 340.391 176.768 340.325 176.661C340.259 176.553 340.153 176.498 340.011 176.498C339.868 176.498 339.764 176.551 339.698 176.658C339.632 176.766 339.599 176.931 339.597 177.153V177.599C339.597 177.836 339.632 178.01 339.7 178.124C339.769 178.236 339.872 178.293 340.013 178.293C340.153 178.293 340.252 178.241 340.318 178.133C340.384 178.027 340.42 177.858 340.424 177.63V177.173V177.177Z" fill="#F0F3F5"/>
<path d="M338.688 165.96V166.195H338.637C338.42 166.2 338.248 166.264 338.118 166.389C337.991 166.514 337.916 166.688 337.896 166.914C338.011 166.782 338.169 166.714 338.369 166.714C338.569 166.714 338.712 166.782 338.826 166.916C338.941 167.05 338.998 167.224 338.998 167.437C338.998 167.663 338.936 167.844 338.813 167.98C338.69 168.116 338.525 168.182 338.318 168.182C338.112 168.182 337.938 168.101 337.808 167.94C337.679 167.78 337.613 167.571 337.613 167.318V167.211C337.613 166.806 337.698 166.499 337.87 166.286C338.041 166.072 338.299 165.963 338.639 165.958H338.69L338.688 165.96ZM338.323 166.947C338.228 166.947 338.14 166.976 338.059 167.033C337.98 167.09 337.923 167.162 337.892 167.248V167.351C337.892 167.532 337.931 167.677 338.015 167.787C338.096 167.896 338.197 167.951 338.318 167.951C338.439 167.951 338.543 167.905 338.615 167.813C338.688 167.721 338.721 167.6 338.721 167.45C338.721 167.301 338.686 167.178 338.613 167.086C338.541 166.993 338.444 166.947 338.323 166.947Z" fill="#F0F3F5"/>
<path d="M340.701 167.22C340.701 167.545 340.646 167.789 340.534 167.947C340.422 168.105 340.248 168.184 340.013 168.184C339.777 168.184 339.606 168.107 339.492 167.951C339.379 167.795 339.32 167.565 339.316 167.257V166.886C339.316 166.565 339.373 166.325 339.483 166.167C339.593 166.011 339.769 165.932 340.006 165.932C340.244 165.932 340.415 166.006 340.527 166.158C340.639 166.31 340.697 166.543 340.699 166.857V167.217L340.701 167.22ZM340.424 166.837C340.424 166.602 340.391 166.428 340.325 166.321C340.259 166.213 340.153 166.158 340.011 166.158C339.868 166.158 339.764 166.211 339.698 166.319C339.632 166.426 339.599 166.591 339.597 166.813V167.259C339.597 167.496 339.632 167.67 339.7 167.784C339.769 167.896 339.872 167.954 340.013 167.954C340.153 167.954 340.252 167.901 340.318 167.793C340.384 167.688 340.42 167.518 340.424 167.29V166.833V166.837Z" fill="#F0F3F5"/>
<path d="M350.656 228.681H350.412V227.057L349.921 227.237V227.015L350.619 226.753H350.659V228.681H350.656Z" fill="#F0F3F5"/>
<path d="M367.023 228.681H365.764V228.505L366.429 227.766C366.528 227.654 366.596 227.564 366.633 227.494C366.671 227.424 366.688 227.351 366.688 227.276C366.688 227.177 366.658 227.094 366.598 227.03C366.537 226.966 366.457 226.934 366.356 226.934C366.235 226.934 366.14 226.969 366.072 227.037C366.004 227.105 365.971 227.202 365.971 227.325H365.727C365.727 227.149 365.784 227.006 365.898 226.896C366.013 226.788 366.165 226.734 366.356 226.734C366.534 226.734 366.675 226.78 366.779 226.874C366.884 226.969 366.935 227.092 366.935 227.248C366.935 227.437 366.814 227.661 366.574 227.922L366.059 228.481H367.023V228.681Z" fill="#F0F3F5"/>
<path d="M382.034 227.604H382.216C382.331 227.604 382.421 227.571 382.489 227.514C382.555 227.454 382.588 227.375 382.588 227.274C382.588 227.05 382.476 226.936 382.252 226.936C382.146 226.936 382.062 226.966 382.001 227.026C381.937 227.085 381.906 227.166 381.906 227.265H381.662C381.662 227.114 381.717 226.988 381.829 226.887C381.941 226.786 382.082 226.736 382.252 226.736C382.434 226.736 382.575 226.784 382.678 226.879C382.782 226.975 382.833 227.107 382.833 227.278C382.833 227.362 382.806 227.443 382.751 227.52C382.696 227.597 382.623 227.656 382.531 227.696C382.637 227.729 382.718 227.784 382.775 227.861C382.833 227.938 382.861 228.032 382.861 228.144C382.861 228.316 382.804 228.452 382.692 228.553C382.579 228.654 382.432 228.705 382.254 228.705C382.076 228.705 381.926 228.656 381.814 228.56C381.701 228.463 381.644 228.333 381.644 228.173H381.891C381.891 228.274 381.924 228.355 381.99 228.415C382.056 228.476 382.144 228.505 382.254 228.505C382.37 228.505 382.461 228.474 382.524 228.412C382.586 228.351 382.619 228.263 382.619 228.147C382.619 228.03 382.586 227.949 382.516 227.889C382.447 227.83 382.348 227.799 382.219 227.797H382.036V227.599L382.034 227.604Z" fill="#F0F3F5"/>
<path d="M398.621 228.037H398.888V228.235H398.621V228.681H398.377V228.235H397.504V228.092L398.364 226.762H398.624V228.037H398.621ZM397.779 228.037H398.377V227.096L398.349 227.149L397.781 228.037H397.779Z" fill="#F0F3F5"/>
<path d="M413.615 227.72L413.712 226.764H414.696V226.988H413.919L413.862 227.511C413.956 227.457 414.062 227.428 414.183 227.428C414.359 227.428 414.496 227.485 414.599 227.602C414.702 227.718 414.753 227.874 414.753 228.07C414.753 228.265 414.7 228.424 414.592 228.538C414.487 228.652 414.337 228.707 414.143 228.707C413.974 228.707 413.835 228.661 413.728 228.566C413.622 228.472 413.56 228.342 413.545 228.177H413.776C413.791 228.287 413.831 228.371 413.893 228.426C413.954 228.481 414.04 228.509 414.143 228.509C414.258 228.509 414.346 228.47 414.412 228.393C414.476 228.316 414.509 228.208 414.509 228.072C414.509 227.944 414.474 227.841 414.403 227.764C414.333 227.687 414.24 227.648 414.124 227.648C414.018 227.648 413.934 227.672 413.873 227.718L413.809 227.771L413.615 227.72Z" fill="#F0F3F5"/>
<path d="M422.891 224.852H342.351V161.488H422.891V224.852ZM342.476 224.727H422.766V161.613H342.476V224.727Z" fill="#F0F3F5"/>
<path d="M422.83 214.187H342.414V214.313H422.83V214.187Z" fill="#F0F3F5"/>
<path d="M422.83 203.645H342.414V203.77H422.83V203.645Z" fill="#F0F3F5"/>
<path d="M422.83 193.108H342.414V193.233H422.83V193.108Z" fill="#F0F3F5"/>
<path d="M422.83 182.568H342.414V182.693H422.83V182.568Z" fill="#F0F3F5"/>
<path d="M422.83 172.03H342.414V172.155H422.83V172.03Z" fill="#F0F3F5"/>
<path d="M406.81 161.552H406.684V224.791H406.81V161.552Z" fill="#F0F3F5"/>
<path d="M390.725 161.552H390.599V224.791H390.725V161.552Z" fill="#F0F3F5"/>
<path d="M374.643 161.552H374.517V224.791H374.643V161.552Z" fill="#F0F3F5"/>
<path d="M358.563 161.552H358.437V224.791H358.563V161.552Z" fill="#F0F3F5"/>
<path d="M352.384 197.885H348.53V224.791H352.384V197.885Z" fill="#880AF0"/>
<path d="M368.451 197.885H364.597V224.791H368.451V197.885Z" fill="#5357F5"/>
<path d="M384.522 197.885H380.666V224.791H384.522V197.885Z" fill="#9FEEFF"/>
<path d="M400.587 197.885H396.733V224.791H400.587V197.885Z" fill="#880AF0"/>
<path d="M416.656 197.885H412.8V224.791H416.656V197.885Z" fill="#9FEEFF"/>
<path d="M352.384 193.171H348.53V197.885H352.384V193.171Z" fill="#880AF0"/>
<path d="M368.451 177.142H364.597V197.885H368.451V177.142Z" fill="#5357F5"/>
<path d="M400.587 179.645H396.733V197.885H400.587V179.645Z" fill="#880AF0"/>
<path d="M416.656 164.042H412.8V197.885H416.656V164.042Z" fill="#9FEEFF"/>
<path d="M361.052 182.632C361.052 185.025 359.11 186.965 356.714 186.965C354.319 186.965 352.383 185.025 352.383 182.632C352.383 180.238 354.323 178.296 356.714 178.296C359.105 178.296 361.052 180.236 361.052 182.632Z" fill="#5357F5"/>
<path d="M356.208 182.875H356.625V183.188H356.208V183.886H355.823V183.188H354.451V182.961L355.801 180.873H356.21V182.875H356.208ZM354.884 182.875H355.823V181.399L355.777 181.482L354.884 182.878V182.875Z" fill="#ECF6F8"/>
<path d="M357.145 182.377L357.299 180.873H358.843V181.227H357.622L357.532 182.049C357.679 181.963 357.849 181.919 358.036 181.919C358.311 181.919 358.53 182.01 358.691 182.192C358.852 182.374 358.933 182.618 358.933 182.928C358.933 183.238 358.849 183.484 358.68 183.662C358.513 183.84 358.278 183.93 357.976 183.93C357.71 183.93 357.493 183.856 357.323 183.708C357.154 183.561 357.059 183.357 357.035 183.095H357.398C357.42 183.269 357.482 183.398 357.58 183.486C357.679 183.574 357.811 183.618 357.974 183.618C358.152 183.618 358.293 183.557 358.394 183.436C358.495 183.315 358.546 183.146 358.546 182.933C358.546 182.73 358.491 182.57 358.381 182.447C358.271 182.324 358.126 182.265 357.943 182.265C357.776 182.265 357.644 182.302 357.55 182.374L357.449 182.458L357.143 182.379L357.145 182.377Z" fill="#ECF6F8"/>
<path d="M364.598 182.438H361.052V182.825H364.598V182.438Z" fill="#5357F5"/>
<path d="M409.315 172.092C409.315 174.485 407.374 176.425 404.979 176.425C402.583 176.425 400.643 174.485 400.643 172.092C400.643 169.699 402.583 167.756 404.979 167.756C407.374 167.756 409.315 169.696 409.315 172.092Z" fill="#9FEEFF"/>
<path d="M403.029 171.839L403.183 170.336H404.727V170.69H403.507L403.416 171.512C403.564 171.426 403.733 171.382 403.92 171.382C404.195 171.382 404.415 171.472 404.575 171.654C404.736 171.837 404.817 172.081 404.817 172.391C404.817 172.7 404.734 172.944 404.564 173.125C404.397 173.303 404.162 173.393 403.861 173.393C403.594 173.393 403.377 173.318 403.207 173.171C403.038 173.024 402.944 172.819 402.919 172.558H403.282C403.304 172.731 403.366 172.861 403.465 172.949C403.564 173.037 403.696 173.081 403.858 173.081C404.036 173.081 404.177 173.019 404.278 172.898C404.38 172.777 404.43 172.608 404.43 172.395C404.43 172.193 404.375 172.032 404.265 171.909C404.155 171.786 404.01 171.725 403.828 171.725C403.66 171.725 403.529 171.762 403.434 171.835L403.333 171.918L403.027 171.839H403.029Z" fill="#ECF6F8"/>
<path d="M407.061 171.123C407.061 171.272 407.021 171.406 406.942 171.525C406.863 171.641 406.755 171.734 406.619 171.799C406.775 171.868 406.9 171.966 406.993 172.096C407.085 172.226 407.131 172.373 407.131 172.538C407.131 172.799 407.043 173.006 406.867 173.162C406.691 173.316 406.461 173.393 406.175 173.393C405.889 173.393 405.651 173.316 405.478 173.16C405.304 173.004 405.216 172.797 405.216 172.538C405.216 172.375 405.262 172.228 405.35 172.096C405.44 171.964 405.563 171.865 405.72 171.797C405.585 171.731 405.48 171.639 405.403 171.523C405.326 171.406 405.286 171.272 405.286 171.123C405.286 170.868 405.368 170.668 405.53 170.518C405.693 170.369 405.909 170.294 406.175 170.294C406.441 170.294 406.654 170.369 406.817 170.518C406.979 170.668 407.063 170.868 407.063 171.123H407.061ZM406.749 172.527C406.749 172.358 406.694 172.221 406.588 172.116C406.483 172.01 406.342 171.958 406.168 171.958C405.994 171.958 405.858 172.01 405.752 172.116C405.649 172.221 405.596 172.358 405.596 172.529C405.596 172.7 405.647 172.835 405.748 172.933C405.849 173.032 405.99 173.081 406.172 173.081C406.355 173.081 406.491 173.03 406.595 172.933C406.696 172.835 406.749 172.7 406.749 172.531V172.527ZM406.172 170.608C406.023 170.608 405.9 170.654 405.805 170.747C405.713 170.839 405.667 170.967 405.667 171.127C405.667 171.287 405.713 171.404 405.805 171.498C405.898 171.593 406.019 171.641 406.172 171.641C406.326 171.641 406.447 171.593 406.54 171.498C406.632 171.404 406.678 171.281 406.678 171.127C406.678 170.973 406.63 170.85 406.535 170.753C406.441 170.657 406.32 170.608 406.175 170.608H406.172Z" fill="#ECF6F8"/>
<path d="M412.86 171.94H409.314V172.243H412.86V171.94Z" fill="#5BA9DD"/>
<path d="M775.127 24.3167H320.194V50.563H775.127V24.3167Z" fill="#5357F5"/>
<path d="M775.738 281.824H319.867V5.79514C319.867 2.59979 322.115 0 324.879 0H770.729C773.492 0 775.74 2.59979 775.74 5.79514V281.824H775.738ZM320.805 280.883H774.799V5.79514C774.799 3.11843 772.973 0.940584 770.727 0.940584H324.877C322.631 0.940584 320.805 3.11843 320.805 5.79514V280.885V280.883Z" fill="white" fill-opacity="0.5"/>
<path d="M333.481 15.8647C331.62 15.8647 330.105 14.3505 330.105 12.4891C330.105 10.6277 331.62 9.11356 333.481 9.11356C335.342 9.11356 336.857 10.6277 336.857 12.4891C336.857 14.3505 335.342 15.8647 333.481 15.8647ZM333.481 10.0541C332.138 10.0541 331.044 11.1464 331.044 12.4913C331.044 13.8363 332.136 14.9263 333.481 14.9263C334.826 14.9263 335.918 13.8341 335.918 12.4913C335.918 11.1486 334.826 10.0541 333.481 10.0541Z" fill="#F0F3F5"/>
<path d="M342.017 15.8647C340.155 15.8647 338.643 14.3505 338.643 12.4891C338.643 10.6277 340.157 9.11356 342.017 9.11356C343.876 9.11356 345.394 10.6277 345.394 12.4891C345.394 14.3505 343.88 15.8647 342.017 15.8647ZM342.017 10.0541C340.674 10.0541 339.582 11.1464 339.582 12.4913C339.582 13.8363 340.674 14.9263 342.017 14.9263C343.359 14.9263 344.454 13.8341 344.454 12.4913C344.454 11.1486 343.362 10.0541 342.017 10.0541Z" fill="#F0F3F5"/>
<path d="M350.552 15.8647C348.691 15.8647 347.177 14.3505 347.177 12.4891C347.177 10.6277 348.691 9.11356 350.552 9.11356C352.414 9.11356 353.926 10.6277 353.926 12.4891C353.926 14.3505 352.411 15.8647 350.552 15.8647ZM350.552 10.0541C349.209 10.0541 348.115 11.1464 348.115 12.4913C348.115 13.8363 349.207 14.9263 350.552 14.9263C351.897 14.9263 352.987 13.8341 352.987 12.4913C352.987 11.1486 351.895 10.0541 350.552 10.0541Z" fill="#F0F3F5"/>
<path d="M729.961 16.9898C727.48 16.9898 725.461 14.9724 725.461 12.4913C725.461 10.0102 727.48 7.99277 729.961 7.99277C732.442 7.99277 734.46 10.0124 734.46 12.4913C734.46 14.9702 732.442 16.9898 729.961 16.9898ZM729.961 8.92896C727.997 8.92896 726.399 10.5266 726.399 12.4891C726.399 14.4516 727.997 16.0493 729.961 16.0493C731.926 16.0493 733.519 14.4516 733.519 12.4891C733.519 10.5266 731.922 8.92896 729.961 8.92896Z" fill="#F0F3F5"/>
<path d="M729.931 14.1483L727.612 11.8276L728.276 11.1639L729.931 12.821L731.588 11.1639L732.251 11.8276L729.931 14.1483Z" fill="#F0F3F5"/>
<path d="M376.256 16.5459L372.203 12.4913L376.256 8.43448L376.919 9.10036L373.53 12.4913L376.919 15.88L376.256 16.5459Z" fill="#F0F3F5"/>
<path d="M384.202 16.5437L383.539 15.88L386.925 12.4891L383.539 9.10036L384.202 8.43668L388.252 12.4891L384.202 16.5437Z" fill="#F0F3F5"/>
<path d="M360.523 36.9707H331.055V37.9091H360.523V36.9707Z" fill="#F0F3F5"/>
<path d="M635.29 58.8502H616.784V59.7886H635.29V58.8502Z" fill="#F0F3F5"/>
<path d="M544.097 44.2184H376.779C373.04 44.2184 369.999 41.1769 369.999 37.441C369.999 33.705 373.04 30.6613 376.779 30.6613H544.097C547.835 30.6613 550.877 33.7028 550.877 37.441C550.877 41.1791 547.835 44.2184 544.097 44.2184ZM376.781 31.5997C373.561 31.5997 370.942 34.2192 370.942 37.4388C370.942 40.6583 373.561 43.2779 376.781 43.2779H544.099C547.319 43.2779 549.938 40.6583 549.938 37.4388C549.938 34.2192 547.319 31.5997 544.099 31.5997H376.781Z" fill="#F0F3F5"/>
<path d="M556.237 18.3722H410.91C407.666 18.3722 405.027 15.7328 405.027 12.4891C405.027 9.24543 407.666 6.60608 410.91 6.60608H556.237C559.481 6.60608 562.12 9.24543 562.12 12.4891C562.12 15.7328 559.481 18.3722 556.237 18.3722ZM410.908 7.54666C408.183 7.54666 405.965 9.76407 405.965 12.4913C405.965 15.2186 408.183 17.436 410.908 17.436H556.235C558.962 17.436 561.179 15.2186 561.179 12.4913C561.179 9.76407 558.962 7.54666 556.235 7.54666H410.908Z" fill="#F0F3F5"/>
<path d="M743.717 9.1597H742.778V15.8229H743.717V9.1597Z" fill="#F0F3F5"/>
<path d="M746.58 12.021H739.917V12.9594H746.58V12.021Z" fill="#F0F3F5"/>
<path d="M755.958 12.1221H752.311V8.47626H755.958V12.1221ZM753.252 11.1815H755.019V9.41464H753.252V11.1815Z" fill="#F0F3F5"/>
<path d="M755.958 16.5042H752.311V12.8583H755.958V16.5042ZM753.252 15.5658H755.019V13.7989H753.252V15.5658Z" fill="#F0F3F5"/>
<path d="M760.382 12.1221H756.735V8.47626H760.382V12.1221ZM757.674 11.1815H759.441V9.41464H757.674V11.1815Z" fill="#F0F3F5"/>
<path d="M760.382 16.5042H756.735V12.8583H760.382V16.5042ZM757.674 15.5658H759.441V13.7989H757.674V15.5658Z" fill="#F0F3F5"/>
<path d="M542.216 39.821C541.495 39.821 540.774 39.5463 540.227 38.9991C539.695 38.4673 539.403 37.7618 539.403 37.0102C539.403 36.2586 539.698 35.5532 540.227 35.0214C541.289 33.9599 543.141 33.9599 544.205 35.0214C545.302 36.118 545.302 37.9025 544.205 38.9991C543.655 39.5463 542.937 39.821 542.216 39.821ZM542.216 35.1378C541.715 35.1378 541.245 35.3334 540.891 35.6873C540.537 36.0411 540.341 36.5114 540.341 37.0124C540.341 37.5135 540.537 37.9838 540.891 38.3376C541.62 39.0672 542.809 39.0672 543.539 38.3376C544.269 37.608 544.269 36.4191 543.539 35.6894C543.185 35.3356 542.715 35.14 542.214 35.14L542.216 35.1378Z" fill="#F0F3F5"/>
<path d="M544.211 38.3423L543.547 39.0062L545.094 40.5538L545.758 39.8899L544.211 38.3423Z" fill="#F0F3F5"/>
<path d="M733.225 39.9023C732.552 39.9023 731.915 39.6474 731.427 39.1793C730.926 38.698 730.643 38.0519 730.629 37.3574C730.601 35.9246 731.741 34.7357 733.174 34.7071C733.818 34.6961 734.524 34.9488 735.027 35.4301C735.528 35.9114 735.812 36.5575 735.825 37.252C735.853 38.6848 734.713 39.8737 733.28 39.9023C733.262 39.9023 733.245 39.9023 733.225 39.9023ZM733.227 35.6455C733.216 35.6455 733.205 35.6455 733.192 35.6455C732.278 35.6631 731.55 36.4234 731.568 37.3377C731.577 37.7816 731.757 38.1947 732.078 38.5002C732.399 38.8079 732.781 38.9771 733.26 38.9617C734.174 38.9441 734.902 38.1837 734.884 37.2695C734.875 36.8256 734.695 36.4125 734.374 36.107C734.062 35.8081 733.656 35.6455 733.227 35.6455Z" fill="#F0F3F5"/>
<path d="M733.738 39.4297L732.798 39.4487L732.841 41.5756L733.781 41.5566L733.738 39.4297Z" fill="#F0F3F5"/>
<path d="M733.609 33.0452L732.669 33.0642L732.712 35.191L733.652 35.172L733.609 33.0452Z" fill="#F0F3F5"/>
<path d="M731.087 36.9204L728.959 36.962L728.977 37.9002L731.105 37.8586L731.087 36.9204Z" fill="#F0F3F5"/>
<path d="M737.472 36.7913L735.344 36.8329L735.362 37.7711L737.49 37.7295L737.472 36.7913Z" fill="#F0F3F5"/>
<path d="M730.5 34.0343L729.848 34.7132L731.385 36.1893L732.037 35.5104L730.5 34.0343Z" fill="#F0F3F5"/>
<path d="M735.082 38.4352L734.43 39.1142L735.966 40.5884L736.618 39.9094L735.082 38.4352Z" fill="#F0F3F5"/>
<path d="M731.405 38.5013L729.929 40.038L730.606 40.6886L732.083 39.1519L731.405 38.5013Z" fill="#F0F3F5"/>
<path d="M735.808 33.879L734.334 35.4142L735.011 36.0647L736.486 34.5296L735.808 33.879Z" fill="#F0F3F5"/>
<path d="M757.155 41.7307C754.713 41.7307 752.729 39.7463 752.729 37.3047C752.729 34.8631 754.713 32.8787 757.155 32.8787C759.596 32.8787 761.581 34.8631 761.581 37.3047C761.581 39.7463 759.594 41.7307 757.155 41.7307ZM757.155 33.8171C755.232 33.8171 753.669 35.3818 753.669 37.3025C753.669 39.2232 755.234 40.788 757.155 40.788C759.075 40.788 760.642 39.2232 760.642 37.3025C760.642 35.3818 759.078 33.8171 757.155 33.8171Z" fill="#F0F3F5"/>
<path d="M744.104 35.0192H743.165V35.918H744.104V35.0192Z" fill="#F0F3F5"/>
<path d="M745.757 35.0192H744.817V35.918H745.757V35.0192Z" fill="#F0F3F5"/>
<path d="M747.41 35.0192H746.47V35.918H747.41V35.0192Z" fill="#F0F3F5"/>
<path d="M744.104 36.8542H743.165V37.753H744.104V36.8542Z" fill="#F0F3F5"/>
<path d="M745.757 36.8542H744.817V37.753H745.757V36.8542Z" fill="#F0F3F5"/>
<path d="M747.41 36.8542H746.47V37.753H747.41V36.8542Z" fill="#F0F3F5"/>
<path d="M744.104 38.6914H743.165V39.5902H744.104V38.6914Z" fill="#F0F3F5"/>
<path d="M745.757 38.6914H744.817V39.5902H745.757V38.6914Z" fill="#F0F3F5"/>
<path d="M747.41 38.6914H746.47V39.5902H747.41V38.6914Z" fill="#F0F3F5"/>
<path d="M630.044 72.7305H430.297V152.324H630.044V72.7305Z" fill="white" fill-opacity="0.25"/>
<path d="M473.665 139.782C473.406 139.782 473.195 139.571 473.195 139.312V116.057H467.246V139.312C467.246 139.571 467.035 139.782 466.776 139.782C466.516 139.782 466.306 139.571 466.306 139.312V115.586C466.306 115.327 466.516 115.116 466.776 115.116H473.663C473.923 115.116 474.133 115.327 474.133 115.586V139.312C474.133 139.571 473.923 139.782 473.663 139.782H473.665Z" fill="#F0F3F5"/>
<path d="M491.556 139.782C491.297 139.782 491.086 139.571 491.086 139.312V98.4536H485.137V139.312C485.137 139.571 484.926 139.782 484.667 139.782C484.407 139.782 484.196 139.571 484.196 139.312V97.9855C484.196 97.7262 484.407 97.5153 484.667 97.5153H491.554C491.813 97.5153 492.024 97.7262 492.024 97.9855V139.312C492.024 139.571 491.813 139.782 491.554 139.782H491.556Z" fill="#2F32AF"/>
<path d="M509.445 139.782C509.185 139.782 508.975 139.571 508.975 139.312V128.302H503.026V139.312C503.026 139.571 502.815 139.782 502.555 139.782C502.296 139.782 502.085 139.571 502.085 139.312V127.832C502.085 127.572 502.296 127.361 502.555 127.361H509.443C509.702 127.361 509.913 127.572 509.913 127.832V139.312C509.913 139.571 509.702 139.782 509.443 139.782H509.445Z" fill="#F0F3F5"/>
<path d="M527.334 139.782C527.074 139.782 526.863 139.571 526.863 139.312V112.231H520.914V139.312C520.914 139.571 520.703 139.782 520.444 139.782C520.185 139.782 519.974 139.571 519.974 139.312V111.76C519.974 111.501 520.185 111.29 520.444 111.29H527.331C527.591 111.29 527.802 111.501 527.802 111.76V139.312C527.802 139.571 527.591 139.782 527.331 139.782H527.334Z" fill="#2F32AF"/>
<path d="M545.222 139.782C544.963 139.782 544.752 139.571 544.752 139.312V102.664H538.803V139.312C538.803 139.571 538.592 139.782 538.333 139.782C538.073 139.782 537.862 139.571 537.862 139.312V102.194C537.862 101.935 538.073 101.724 538.333 101.724H545.22C545.479 101.724 545.69 101.935 545.69 102.194V139.312C545.69 139.571 545.479 139.782 545.22 139.782H545.222Z" fill="#F0F3F5"/>
<path d="M563.111 139.782C562.852 139.782 562.641 139.571 562.641 139.312V134.807H556.692V139.312C556.692 139.571 556.481 139.782 556.221 139.782C555.962 139.782 555.751 139.571 555.751 139.312V134.337C555.751 134.077 555.962 133.866 556.221 133.866H563.109C563.368 133.866 563.579 134.077 563.579 134.337V139.312C563.579 139.571 563.368 139.782 563.109 139.782H563.111Z" fill="#50545B"/>
<path d="M581.002 139.782C580.743 139.782 580.532 139.571 580.532 139.312V106.49H574.583V139.312C574.583 139.571 574.372 139.782 574.112 139.782C573.853 139.782 573.642 139.571 573.642 139.312V106.02C573.642 105.761 573.853 105.55 574.112 105.55H581C581.259 105.55 581.47 105.761 581.47 106.02V139.312C581.47 139.571 581.259 139.782 581 139.782H581.002Z" fill="#F0F3F5"/>
<path d="M598.89 139.782C598.631 139.782 598.42 139.571 598.42 139.312V119.5H592.471V139.312C592.471 139.571 592.26 139.782 592.001 139.782C591.742 139.782 591.531 139.571 591.531 139.312V119.032C591.531 118.773 591.742 118.562 592.001 118.562H598.888C599.147 118.562 599.358 118.773 599.358 119.032V139.312C599.358 139.571 599.147 139.782 598.888 139.782H598.89Z" fill="#2F32AF"/>
<path d="M616.779 139.782C616.52 139.782 616.309 139.571 616.309 139.312V128.302H610.36V139.312C610.36 139.571 610.149 139.782 609.89 139.782C609.63 139.782 609.419 139.571 609.419 139.312V127.832C609.419 127.572 609.63 127.361 609.89 127.361H616.777C617.036 127.361 617.247 127.572 617.247 127.832V139.312C617.247 139.571 617.036 139.782 616.777 139.782H616.779Z" fill="#F0F3F5"/>
<path d="M616.127 79.7687L615.463 80.4324L621.01 85.9792L621.674 85.3155L616.127 79.7687Z" fill="#F0F3F5"/>
<path d="M620.999 79.7549L615.452 85.3017L616.116 85.9653L621.663 80.4186L620.999 79.7549Z" fill="#F0F3F5"/>
<path d="M444.839 88.1248H439.226C438.967 88.1248 438.756 87.9138 438.756 87.6545V82.0418C438.756 81.7824 438.967 81.5715 439.226 81.5715H444.839C445.098 81.5715 445.309 81.7824 445.309 82.0418V87.6545C445.309 87.9138 445.098 88.1248 444.839 88.1248ZM439.697 87.1842H444.369V82.5099H439.697V87.1842Z" fill="#2F32AF"/>
<path d="M461.284 85.3185H449.039C448.779 85.3185 448.568 85.1075 448.568 84.8482C448.568 84.5888 448.779 84.3779 449.039 84.3779H461.284C461.543 84.3779 461.754 84.5888 461.754 84.8482C461.754 85.1075 461.543 85.3185 461.284 85.3185Z" fill="#2F32AF"/>
<path d="M444.839 98.0735H439.226C438.967 98.0735 438.756 97.8625 438.756 97.6032V91.9904C438.756 91.7311 438.967 91.5201 439.226 91.5201H444.839C445.098 91.5201 445.309 91.7311 445.309 91.9904V97.6032C445.309 97.8625 445.098 98.0735 444.839 98.0735ZM439.697 97.1351H444.369V92.4607H439.697V97.1351Z" fill="#F0F3F5"/>
<path d="M461.284 95.2671H449.039C448.779 95.2671 448.568 95.0561 448.568 94.7968C448.568 94.5375 448.779 94.3265 449.039 94.3265H461.284C461.543 94.3265 461.754 94.5375 461.754 94.7968C461.754 95.0561 461.543 95.2671 461.284 95.2671Z" fill="#50545B"/>
<path d="M422.427 72.8139H336.153V153.265H422.427V72.8139Z" fill="#01D0FE" fill-opacity="0.5"/>
<path d="M352.916 101.561H348.506V97.1548H352.916V101.561ZM349.445 100.621H351.975V98.0932H349.445V100.621Z" fill="#880AF0"/>
<path d="M362.744 101.561H358.334V97.1548H362.744V101.561ZM359.275 100.621H361.805V98.0932H359.275V100.621Z" fill="#880AF0"/>
<path d="M372.101 97.623H368.632V101.091H372.101V97.623Z" fill="#F0F3F5"/>
<path d="M381.928 97.623H378.458V101.091H381.928V97.623Z" fill="#F0F3F5"/>
<path d="M391.754 97.623H388.285V101.091H391.754V97.623Z" fill="#F0F3F5"/>
<path d="M401.582 97.623H398.113V101.091H401.582V97.623Z" fill="#880AF0"/>
<path d="M411.41 97.623H407.941V101.091H411.41V97.623Z" fill="#880AF0"/>
<path d="M352.445 106.295H348.976V109.763H352.445V106.295Z" fill="#F0F3F5"/>
<path d="M362.275 106.295H358.804V109.763H362.275V106.295Z" fill="#F0F3F5"/>
<path d="M372.101 106.295H368.632V109.763H372.101V106.295Z" fill="#F0F3F5"/>
<path d="M381.928 106.295H378.458V109.763H381.928V106.295Z" fill="#F0F3F5"/>
<path d="M391.754 106.295H388.285V109.763H391.754V106.295Z" fill="#F0F3F5"/>
<path d="M401.582 106.295H398.113V109.763H401.582V106.295Z" fill="#880AF0"/>
<path d="M411.41 106.295H407.941V109.763H411.41V106.295Z" fill="#880AF0"/>
<path d="M352.445 114.967H348.976V118.434H352.445V114.967Z" fill="#F0F3F5"/>
<path d="M362.275 114.967H358.804V118.434H362.275V114.967Z" fill="#F0F3F5"/>
<path d="M372.101 114.967H368.632V118.434H372.101V114.967Z" fill="#F9C56B"/>
<path d="M381.928 114.967H378.458V118.434H381.928V114.967Z" fill="#F9C56B"/>
<path d="M391.754 114.967H388.285V118.434H391.754V114.967Z" fill="#F0F3F5"/>
<path d="M401.582 114.967H398.113V118.434H401.582V114.967Z" fill="#880AF0"/>
<path d="M411.41 114.967H407.941V118.434H411.41V114.967Z" fill="#880AF0"/>
<path d="M391.754 123.636H388.285V127.104H391.754V123.636Z" fill="#F0F3F5"/>
<path d="M350.813 125.783C352.028 125.013 353.482 124.752 354.907 125.047C356.33 125.343 357.55 126.157 358.339 127.343L358.912 128.203C359.322 127.26 360.013 126.423 360.956 125.826C363.473 124.231 366.849 124.933 368.483 127.388H368.485L372.465 133.366C372.975 134.133 373.782 135.051 374.721 135.064C375.544 135.078 376.51 134.407 377.312 133.272C377.726 132.685 379.695 129.673 377.671 127.981C377.006 127.424 376.13 127.19 375.202 127.32C374.263 127.451 373.43 127.936 372.977 128.619L370.964 127.343C371.79 126.104 373.245 125.228 374.859 125C376.483 124.771 378.035 125.198 379.233 126.2C381.521 128.113 381.541 131.41 379.286 134.598C378.024 136.383 376.37 137.402 374.74 137.402H374.686C373.583 137.387 371.953 136.896 370.451 134.638L366.472 128.66C365.559 127.29 363.671 126.899 362.264 127.789C360.858 128.68 360.457 130.523 361.37 131.894L366.875 140.161C367.341 140.861 368.351 141.384 369.386 141.46C370.188 141.52 371.358 141.356 372.38 140.238L374.171 141.795C372.972 143.105 371.391 143.811 369.676 143.811C369.519 143.811 369.361 143.807 369.202 143.794C367.402 143.66 365.74 142.757 364.861 141.437L364.288 140.576C363.878 141.519 363.188 142.357 362.244 142.954C361.331 143.533 360.305 143.809 359.289 143.809C357.507 143.809 355.759 142.958 354.718 141.394L352.811 138.529L354.824 137.253L356.731 140.119C357.645 141.489 359.532 141.88 360.939 140.99C362.345 140.099 362.746 138.256 361.833 136.885L356.328 128.619C355.888 127.957 355.206 127.502 354.408 127.336C353.609 127.17 352.798 127.315 352.12 127.744C350.715 128.635 350.314 130.479 351.227 131.85L353.133 134.715L351.119 135.991L349.213 133.125C348.424 131.939 348.156 130.52 348.459 129.13C348.762 127.74 349.597 126.552 350.813 125.783ZM353.893 130.663C354.354 130.375 354.968 130.501 355.268 130.948L359.484 137.248C359.783 137.694 359.652 138.291 359.192 138.581C359.026 138.686 358.838 138.738 358.652 138.738H358.65C358.326 138.738 358.009 138.582 357.817 138.298L353.601 131.997C353.301 131.551 353.433 130.954 353.893 130.663Z" fill="#01D0FE"/>
<path d="M401.582 123.636H398.113V127.104H401.582V123.636Z" fill="#880AF0"/>
<path d="M411.41 123.636H407.941V127.104H411.41V123.636Z" fill="#880AF0"/>
<path d="M391.754 132.306H388.285V135.776H391.754V132.306Z" fill="#F0F3F5"/>
<path d="M401.582 132.306H398.113V135.776H401.582V132.306Z" fill="#880AF0"/>
<path d="M411.41 132.306H407.941V135.776H411.41V132.306Z" fill="#880AF0"/>
<path d="M392.225 144.918H387.815V140.512H392.225V144.918ZM388.756 143.978H391.286V141.45H388.756V143.978Z" fill="#880AF0"/>
<path d="M402.05 144.918H397.643V140.512H402.05V144.918ZM398.581 143.978H401.112V141.45H398.581V143.978Z" fill="#880AF0"/>
<path d="M411.88 144.918H407.471V140.512H411.88V144.918ZM408.409 143.978H410.939V141.45H408.409V143.978Z" fill="#880AF0"/>
<path d="M366.36 85.4283H348.247C347.988 85.4283 347.777 85.2173 347.777 84.958C347.777 84.6987 347.988 84.4877 348.247 84.4877H366.36C366.619 84.4877 366.83 84.6987 366.83 84.958C366.83 85.2173 366.619 85.4283 366.36 85.4283Z" fill="#50545B"/>
<path d="M411.409 85.4283H402.9C402.64 85.4283 402.429 85.2173 402.429 84.958C402.429 84.6987 402.64 84.4877 402.9 84.4877H411.409C411.668 84.4877 411.879 84.6987 411.879 84.958C411.879 85.2173 411.668 85.4283 411.409 85.4283Z" fill="#50545B"/>
<path d="M215.934 160.227L178.849 109.189C190.128 101.005 202.004 97.1483 215.934 97.1483V160.227Z" fill="#01D0FE"/>
<path d="M215.934 160.227L205.597 97.913C208.928 97.3988 212.359 97.1483 215.934 97.1483V160.227Z" fill="white" fill-opacity="0.5"/>
<path d="M215.934 160.227V97.1483C250.784 97.1483 279.03 125.383 279.03 160.227C279.03 195.07 250.784 223.332 215.934 223.332C181.084 223.332 152.838 195.077 152.838 160.227C152.838 139.332 161.936 121.476 178.849 109.189L215.934 160.227Z" fill="white" fill-opacity="0.25"/>
<path d="M215.923 160.227L275.927 179.731C286.698 146.597 268.565 110.989 235.43 100.225C228.795 98.0779 222.907 97.1483 215.923 97.1483V160.227Z" fill="#9FEEFF"/>
<path d="M471.953 224.714C474.261 239.434 465.883 252.971 453.241 254.953C440.598 256.936 428.48 246.609 426.175 231.889C423.867 217.169 432.244 203.632 444.887 201.65C457.53 199.67 469.648 209.994 471.956 224.714H471.953Z" fill="#FDD7C5"/>
<path d="M459.315 182.245L459.506 206.144L428.917 219.306L430.79 209.104L434.042 193.404L459.315 182.245Z" fill="#FDD7C5"/>
<path d="M433.288 203.689L433.855 194.976L455.456 187.752C452.97 198.23 445.186 202.935 433.288 203.689Z" fill="#EFAF9B"/>
<path d="M436.216 152.687C436.321 152.115 436.378 151.524 436.378 150.915V144.048H429.99C424.984 144.048 420.94 148.091 420.94 153.071V159.95H427.342C427.975 159.95 428.605 159.886 429.196 159.756C429.908 156.22 432.68 153.427 436.216 152.687Z" fill="#10101A"/>
<path d="M436.649 150.915V144.048H451.489C456.484 144.048 460.528 148.091 460.528 153.071V159.95H445.679C440.692 159.95 436.649 155.904 436.649 150.913V150.915Z" fill="#10101A"/>
<path d="M451.942 197.046C445.753 199.606 438.433 199.606 432.249 197.046C427.689 195.132 424.968 189.038 424.937 185.451V154.849C424.92 151.232 428.528 148.193 432.974 148.107H451.214C455.667 148.19 459.282 151.232 459.247 154.849V185.451L451.94 197.046H451.942Z" fill="#FDD7C5"/>
<path d="M445.597 144.048C448.773 144.048 451.553 145.665 453.17 148.127H456.273C460.132 148.127 463.271 151.263 463.271 155.133V172.435H453.691V165.398C453.691 162.677 451.48 160.471 448.76 160.471H448.707H450.447H437.347C432.35 160.471 428.32 156.429 428.32 151.43V144.048H445.595H445.597Z" fill="#10101A"/>
<path d="M444.235 188.106H435.948C435.948 188.106 442.323 196.235 444.235 188.106Z" fill="#F0F3F5"/>
<path d="M445.492 166.026C445.367 166.026 445.237 166 445.114 165.947C443.316 165.156 441.226 165.083 439.378 165.754C438.89 165.93 438.352 165.679 438.174 165.191C437.998 164.703 438.251 164.165 438.736 163.989C441.033 163.158 443.63 163.246 445.87 164.231C446.344 164.44 446.56 164.993 446.351 165.468C446.195 165.82 445.852 166.028 445.492 166.028V166.026Z" fill="#15141A"/>
<path d="M425.102 166.283C424.823 166.283 424.546 166.158 424.359 165.921C424.041 165.512 424.116 164.921 424.524 164.602C426.533 163.04 428.823 162.728 431.328 163.668C431.814 163.851 432.06 164.391 431.878 164.877C431.695 165.363 431.155 165.604 430.669 165.426C428.788 164.721 427.155 164.936 425.678 166.086C425.507 166.22 425.302 166.283 425.102 166.283Z" fill="#15141A"/>
<path d="M439.327 172.459C439.327 173.309 439.824 173.997 440.436 173.997C441.047 173.997 441.544 173.307 441.544 172.459C441.544 171.61 441.047 170.92 440.436 170.92C439.824 170.92 439.327 171.61 439.327 172.459Z" fill="#15141A"/>
<path d="M429.5 174.019C430.112 174.019 430.609 173.33 430.609 172.481C430.609 171.631 430.112 170.942 429.5 170.942C428.888 170.942 428.392 171.631 428.392 172.481C428.392 173.33 428.888 174.019 429.5 174.019Z" fill="#15141A"/>
<path d="M434.607 184.139C434.581 184.139 434.556 184.139 434.53 184.137C432.018 183.933 430.137 181.898 430.058 181.81C429.823 181.552 429.75 181.185 429.869 180.858L433.06 172.008C433.233 171.52 433.778 171.268 434.262 171.443C434.75 171.619 435.003 172.158 434.827 172.646L431.845 180.917C432.398 181.392 433.469 182.166 434.684 182.265C435.2 182.306 435.587 182.759 435.543 183.278C435.504 183.768 435.093 184.141 434.607 184.141V184.139Z" fill="#EFAF9B"/>
<path d="M452.742 173.667C452.742 171.301 454.654 169.386 457.025 169.386H457.385C459.748 169.386 461.679 171.298 461.679 173.667V178.874C461.679 181.234 459.748 183.157 457.385 183.157H457.025C455.276 183.157 453.766 182.115 453.098 180.612L452.742 173.667Z" fill="#FDD7C5"/>
<path d="M478.566 332.343L483.539 298.374C483.539 298.374 496.703 295.304 497.58 280.384C498.457 265.467 509.865 259.762 502.406 237.825C494.947 215.886 465.989 209.306 465.989 209.306L459.779 201.687L430.475 229.267L431.328 207.113C431.328 207.113 412.901 225.54 405.882 228.173C398.86 230.806 401.933 237.388 398.86 240.458C395.79 243.528 380.433 252.742 378.677 264.15C376.921 275.558 376.484 277.314 376.484 277.314L400.616 295.304L406.69 335.446C406.69 335.446 448.294 337.608 478.568 332.343H478.566Z" fill="#50545B"/>
<path d="M474.608 252.762L472.729 252.723C472.731 252.615 472.98 241.965 475.613 232.311C478.41 222.055 490.04 222.402 490.159 222.406L490.086 224.283C489.658 224.268 479.825 224.008 477.426 232.806C474.857 242.229 474.61 252.657 474.608 252.762Z" fill="#15141A"/>
<path d="M496.798 281.782C496.51 281.351 496.477 280.72 496.404 278.591C496.235 273.635 495.883 263.324 490.348 258.768C487.95 256.793 484.75 256.111 480.836 256.74C467.231 258.929 465.147 260.41 465.064 260.471L463.772 259.113C464.176 258.689 466.582 257.131 480.537 254.885C485.007 254.166 488.708 254.984 491.541 257.318C497.734 262.414 498.103 273.297 498.283 278.527C498.316 279.51 498.354 280.622 498.428 280.87C498.428 280.868 498.411 280.813 498.362 280.738L496.8 281.78L496.798 281.782Z" fill="#15141A"/>
<path d="M407.873 266.284C403.001 255.213 405.495 231.698 405.605 230.702L407.473 230.907C407.446 231.146 404.924 254.916 409.594 265.528L407.875 266.284H407.873Z" fill="#15141A"/>
<path d="M407.46 263.106C398.401 255.283 386.87 260.557 386.756 260.612L385.954 258.913C386.079 258.854 398.687 253.05 408.686 261.685L407.46 263.106Z" fill="#15141A"/>
<path d="M466.822 228.758L449.843 216.673L438.336 226.865L437.093 225.459L449.718 214.277L464.717 224.953L463.954 211.992L465.829 211.882L466.822 228.758Z" fill="#15141A"/>
<path d="M429.108 216.257L420.775 225.379L422.162 226.646L430.495 217.524L429.108 216.257Z" fill="#15141A"/>
<path d="M425.843 244.844C425.843 246.055 426.825 247.037 428.037 247.037C429.248 247.037 430.23 246.055 430.23 244.844C430.23 243.633 429.248 242.651 428.037 242.651C426.825 242.651 425.843 243.633 425.843 244.844Z" fill="#15141A"/>
<path d="M423.428 257.788C423.428 258.999 424.41 259.981 425.624 259.981C426.837 259.981 427.817 258.999 427.817 257.788C427.817 256.577 426.835 255.595 425.624 255.595C424.412 255.595 423.428 256.577 423.428 257.788Z" fill="#15141A"/>
<path d="M423.1 291.462C423.1 292.673 424.083 293.656 425.294 293.656C426.505 293.656 427.488 292.673 427.488 291.462C427.488 290.252 426.505 289.269 425.294 289.269C424.083 289.269 423.1 290.252 423.1 291.462Z" fill="#15141A"/>
<path d="M423.1 307.52C423.1 308.731 424.083 309.714 425.294 309.714C426.505 309.714 427.488 308.731 427.488 307.52C427.488 306.31 426.505 305.327 425.294 305.327C424.083 305.327 423.1 306.31 423.1 307.52Z" fill="#15141A"/>
<path d="M413.338 268.099L420.797 262.616C420.797 262.616 434.178 264.153 444.052 263.713C453.924 263.273 463.139 258.228 467.745 259.544C472.351 260.86 487.269 266.126 487.708 276.437C488.148 286.746 489.025 290.915 482.662 292.671C476.3 294.427 462.482 296.62 453.047 292.671C443.613 288.722 427.599 278.411 423.212 275.998C418.826 273.585 412.901 272.268 413.34 268.099H413.338Z" fill="#FDD7C5"/>
<path d="M433.921 282.355C433.921 282.355 417.725 294.425 399.295 292.451C380.868 290.476 378.016 283.676 378.016 283.676L377.576 276.657C377.576 276.657 381.088 264.812 388.984 264.152C396.88 263.495 404.559 264.592 410.484 268.102C416.406 271.611 436.332 280.382 433.919 282.358L433.921 282.355Z" fill="#FDD7C5"/>
<path d="M464.978 295.471C460.691 295.471 456.381 294.963 452.709 293.546C446.668 291.214 438.462 285.771 430.526 280.507C422.467 275.163 414.134 269.633 410.701 269.42L410.818 267.546C414.751 267.792 422.542 272.958 431.563 278.943C439.415 284.151 447.533 289.535 453.386 291.794C465.451 296.451 485.7 290.513 485.904 290.454L486.44 292.254C485.834 292.434 475.47 295.471 464.978 295.471Z" fill="#EFAF9B"/>
<path d="M423.718 324.132L491.906 528.424H513.475L480.118 320.966L423.718 324.132Z" fill="#202A54"/>
<path d="M405.627 324.132L423.718 526.386H453.636L451.504 322.688L405.627 324.132Z" fill="#202A54"/>
<path d="M491.906 527.292L490.253 541.616C490.022 543.618 491.427 545.392 493.244 545.392H516.385C519.139 545.392 520.879 542.106 519.541 539.432L513.473 527.292H491.903H491.906Z" fill="#50545B"/>
<path d="M453.636 526.386V545.389H403.194C402.049 545.389 401.12 544.258 401.12 542.86C401.12 541.108 401.996 539.533 403.33 538.884L429.089 526.384H453.634L453.636 526.386Z" fill="#50545B"/>
<path d="M425.631 356.689L423.96 357.549L451.888 411.844L453.559 410.984L425.631 356.689Z" fill="#15141A"/>
<path d="M512.57 527.545L483.843 424.274L469.105 329.642L470.962 329.354L485.691 423.929L514.381 527.041L512.57 527.545Z" fill="#15141A"/>
<path d="M472.861 352.115C462.414 348.902 456.95 330.541 456.722 329.763L458.524 329.237C458.576 329.42 463.932 347.405 473.413 350.321L472.861 352.117V352.115Z" fill="#15141A"/>
<path d="M711.978 84.8679H647.034V87.538H711.978V84.8679Z" fill="#EBF4FB"/>
<path d="M668.072 79.1717H647.034V81.844H668.072V79.1717Z" fill="#EBF4FB"/>
<path d="M751.041 208.146H649.508V93.0607H751.041V208.146ZM649.632 208.025H750.92V93.1815H649.632V208.023V208.025Z" fill="#F0F3F5"/>
<path d="M750.982 191.6H649.572V191.723H750.982V191.6Z" fill="#F0F3F5"/>
<path d="M750.982 175.177H649.572V175.3H750.982V175.177Z" fill="#F0F3F5"/>
<path d="M750.982 158.754H649.572V158.877H750.982V158.754Z" fill="#F0F3F5"/>
<path d="M750.982 142.331H649.572V142.455H750.982V142.331Z" fill="#F0F3F5"/>
<path d="M750.982 125.906H649.572V126.03H750.982V125.906Z" fill="#F0F3F5"/>
<path d="M750.982 109.486H649.572V109.609H750.982V109.486Z" fill="#F0F3F5"/>
<path d="M717.242 93.1222H717.118V208.087H717.242V93.1222Z" fill="#F0F3F5"/>
<path d="M683.436 93.1222H683.312V208.087H683.436V93.1222Z" fill="#F0F3F5"/>
<path d="M649.529 93.0765L644.283 98.3218L644.369 98.4073L649.614 93.162L649.529 93.0765Z" fill="#F0F3F5"/>
<path d="M649.522 109.494L644.281 114.74L644.366 114.826L649.607 109.579L649.522 109.494Z" fill="#F0F3F5"/>
<path d="M649.527 125.923L644.282 131.168L644.368 131.254L649.613 126.009L649.527 125.923Z" fill="#F0F3F5"/>
<path d="M649.529 142.348L644.284 147.593L644.37 147.679L649.615 142.434L649.529 142.348Z" fill="#F0F3F5"/>
<path d="M649.53 158.771L644.285 164.017L644.37 164.102L649.615 158.857L649.53 158.771Z" fill="#F0F3F5"/>
<path d="M649.528 175.195L644.283 180.44L644.368 180.525L649.614 175.28L649.528 175.195Z" fill="#F0F3F5"/>
<path d="M649.529 191.616L644.283 196.861L644.369 196.946L649.614 191.701L649.529 191.616Z" fill="#F0F3F5"/>
<path d="M639.649 199.971H639.286V197.637C639.286 197.444 639.293 197.259 639.304 197.085C639.271 197.116 639.238 197.149 639.198 197.184C639.159 197.219 638.98 197.364 638.666 197.622L638.468 197.367L639.337 196.696H639.651V199.971H639.649Z" fill="#F0F3F5"/>
<path d="M643.064 198.329C643.064 198.894 642.974 199.318 642.798 199.597C642.62 199.876 642.347 200.017 641.978 200.017C641.608 200.017 641.356 199.874 641.173 199.588C640.991 199.303 640.898 198.883 640.898 198.331C640.898 197.78 640.986 197.338 641.164 197.061C641.342 196.784 641.613 196.648 641.978 196.648C642.343 196.648 642.602 196.793 642.789 197.081C642.972 197.369 643.066 197.786 643.066 198.331L643.064 198.329ZM641.274 198.329C641.274 198.806 641.331 199.153 641.444 199.369C641.556 199.586 641.734 199.694 641.978 199.694C642.222 199.694 642.404 199.584 642.517 199.364C642.629 199.145 642.684 198.799 642.684 198.329C642.684 197.859 642.629 197.514 642.517 197.296C642.404 197.077 642.226 196.969 641.978 196.969C641.729 196.969 641.556 197.077 641.444 197.292C641.331 197.507 641.274 197.854 641.274 198.329Z" fill="#F0F3F5"/>
<path d="M640.425 183.664H638.272V183.344L639.134 182.478C639.396 182.212 639.569 182.023 639.653 181.909C639.737 181.794 639.8 181.684 639.842 181.577C639.884 181.469 639.904 181.353 639.904 181.229C639.904 181.054 639.851 180.915 639.743 180.814C639.638 180.711 639.49 180.66 639.303 180.66C639.167 180.66 639.037 180.682 638.916 180.728C638.795 180.772 638.659 180.854 638.51 180.972L638.312 180.72C638.613 180.469 638.943 180.344 639.297 180.344C639.605 180.344 639.847 180.423 640.02 180.579C640.196 180.737 640.282 180.948 640.282 181.214C640.282 181.423 640.225 181.627 640.106 181.829C639.989 182.032 639.772 182.289 639.453 182.601L638.736 183.302V183.319H640.42V183.664H640.425Z" fill="#F0F3F5"/>
<path d="M643.064 182.023C643.064 182.588 642.974 183.012 642.798 183.291C642.62 183.57 642.347 183.711 641.978 183.711C641.608 183.711 641.356 183.568 641.173 183.282C640.991 182.996 640.898 182.577 640.898 182.025C640.898 181.473 640.986 181.032 641.164 180.755C641.342 180.478 641.613 180.342 641.978 180.342C642.343 180.342 642.602 180.487 642.789 180.775C642.972 181.062 643.066 181.48 643.066 182.025L643.064 182.023ZM641.274 182.023C641.274 182.5 641.331 182.847 641.444 183.062C641.556 183.28 641.734 183.388 641.978 183.388C642.222 183.388 642.404 183.278 642.517 183.058C642.629 182.838 642.684 182.493 642.684 182.023C642.684 181.553 642.629 181.207 642.517 180.99C642.404 180.77 642.226 180.662 641.978 180.662C641.729 180.662 641.556 180.77 641.444 180.986C641.331 181.201 641.274 181.548 641.274 182.023Z" fill="#F0F3F5"/>
<path d="M640.302 164.853C640.302 165.062 640.242 165.233 640.126 165.367C640.009 165.499 639.842 165.589 639.627 165.633V165.65C639.89 165.683 640.084 165.767 640.211 165.901C640.339 166.035 640.403 166.211 640.403 166.428C640.403 166.74 640.295 166.98 640.077 167.149C639.862 167.318 639.552 167.402 639.154 167.402C638.98 167.402 638.822 167.389 638.677 167.362C638.531 167.336 638.393 167.29 638.257 167.224V166.87C638.4 166.94 638.549 166.993 638.712 167.031C638.872 167.068 639.024 167.086 639.167 167.086C639.734 167.086 640.016 166.864 640.016 166.42C640.016 166.022 639.703 165.824 639.079 165.824H638.756V165.503H639.083C639.338 165.503 639.541 165.448 639.69 165.334C639.84 165.222 639.915 165.066 639.915 164.866C639.915 164.705 639.86 164.58 639.75 164.49C639.64 164.4 639.49 164.354 639.303 164.354C639.158 164.354 639.024 164.374 638.899 164.411C638.771 164.451 638.626 164.521 638.463 164.626L638.274 164.376C638.408 164.27 638.564 164.187 638.74 164.125C638.916 164.064 639.101 164.035 639.294 164.035C639.611 164.035 639.86 164.108 640.035 164.253C640.211 164.398 640.299 164.598 640.299 164.853H640.302Z" fill="#F0F3F5"/>
<path d="M643.064 165.714C643.064 166.281 642.974 166.703 642.798 166.982C642.62 167.261 642.347 167.402 641.978 167.402C641.608 167.402 641.356 167.259 641.173 166.973C640.991 166.688 640.898 166.268 640.898 165.716C640.898 165.165 640.986 164.723 641.164 164.446C641.342 164.169 641.613 164.033 641.978 164.033C642.343 164.033 642.602 164.178 642.789 164.466C642.972 164.754 643.066 165.171 643.066 165.716L643.064 165.714ZM641.274 165.714C641.274 166.191 641.331 166.538 641.444 166.754C641.556 166.971 641.734 167.079 641.978 167.079C642.222 167.079 642.404 166.969 642.517 166.749C642.629 166.53 642.684 166.185 642.684 165.714C642.684 165.244 642.629 164.899 642.517 164.681C642.404 164.462 642.226 164.354 641.978 164.354C641.729 164.354 641.556 164.462 641.444 164.677C641.331 164.892 641.274 165.24 641.274 165.714Z" fill="#F0F3F5"/>
<path d="M640.579 150.298H640.093V151.049H639.737V150.298H638.145V149.973L639.699 147.757H640.093V149.959H640.579V150.298ZM639.737 149.959V148.872C639.737 148.658 639.743 148.417 639.758 148.149H639.741C639.668 148.291 639.602 148.41 639.539 148.505L638.514 149.959H639.734H639.737Z" fill="#F0F3F5"/>
<path d="M643.064 149.408C643.064 149.975 642.974 150.397 642.798 150.676C642.62 150.955 642.347 151.096 641.978 151.096C641.608 151.096 641.356 150.953 641.173 150.667C640.991 150.381 640.898 149.962 640.898 149.41C640.898 148.858 640.986 148.417 641.164 148.14C641.342 147.863 641.613 147.727 641.978 147.727C642.343 147.727 642.602 147.872 642.789 148.16C642.972 148.447 643.066 148.865 643.066 149.41L643.064 149.408ZM641.274 149.408C641.274 149.885 641.331 150.232 641.444 150.447C641.556 150.665 641.734 150.773 641.978 150.773C642.222 150.773 642.404 150.663 642.517 150.443C642.629 150.223 642.684 149.878 642.684 149.408C642.684 148.938 642.629 148.592 642.517 148.375C642.404 148.155 642.226 148.047 641.978 148.047C641.729 148.047 641.556 148.155 641.444 148.371C641.331 148.586 641.274 148.933 641.274 149.408Z" fill="#F0F3F5"/>
<path d="M639.294 132.743C639.64 132.743 639.91 132.829 640.108 133C640.306 133.172 640.405 133.405 640.405 133.701C640.405 134.04 640.297 134.306 640.082 134.499C639.864 134.693 639.567 134.789 639.189 134.789C638.811 134.789 638.538 134.73 638.344 134.611V134.253C638.45 134.319 638.58 134.372 638.734 134.411C638.89 134.449 639.042 134.468 639.193 134.468C639.455 134.468 639.659 134.407 639.807 134.282C639.952 134.159 640.025 133.978 640.025 133.743C640.025 133.286 639.743 133.058 639.184 133.058C639.042 133.058 638.852 133.079 638.615 133.121L638.421 132.998L638.545 131.466H640.174V131.809H638.863L638.78 132.792C638.951 132.759 639.123 132.741 639.294 132.741V132.743Z" fill="#F0F3F5"/>
<path d="M643.064 133.101C643.064 133.666 642.974 134.09 642.798 134.369C642.62 134.649 642.347 134.789 641.978 134.789C641.608 134.789 641.356 134.646 641.173 134.361C640.991 134.075 640.898 133.655 640.898 133.104C640.898 132.552 640.986 132.11 641.164 131.833C641.342 131.556 641.613 131.42 641.978 131.42C642.343 131.42 642.602 131.565 642.789 131.853C642.972 132.141 643.066 132.559 643.066 133.104L643.064 133.101ZM641.274 133.101C641.274 133.578 641.331 133.926 641.444 134.141C641.556 134.358 641.734 134.466 641.978 134.466C642.222 134.466 642.404 134.356 642.517 134.136C642.629 133.917 642.684 133.572 642.684 133.101C642.684 132.631 642.629 132.286 642.517 132.069C642.404 131.849 642.226 131.741 641.978 131.741C641.729 131.741 641.556 131.849 641.444 132.064C641.331 132.279 641.274 132.627 641.274 133.101Z" fill="#F0F3F5"/>
<path d="M638.309 117.037C638.309 116.393 638.435 115.912 638.685 115.593C638.936 115.274 639.305 115.116 639.796 115.116C639.965 115.116 640.097 115.129 640.194 115.158V115.479C640.08 115.441 639.948 115.424 639.8 115.424C639.448 115.424 639.18 115.534 638.995 115.751C638.811 115.971 638.71 116.314 638.69 116.782H638.718C638.881 116.525 639.143 116.397 639.499 116.397C639.794 116.397 640.025 116.485 640.194 116.663C640.363 116.841 640.447 117.083 640.447 117.386C640.447 117.727 640.354 117.995 640.167 118.188C639.983 118.384 639.73 118.481 639.413 118.481C639.075 118.481 638.804 118.353 638.606 118.098C638.408 117.843 638.307 117.49 638.307 117.035L638.309 117.037ZM639.409 118.164C639.62 118.164 639.785 118.098 639.904 117.964C640.02 117.83 640.08 117.637 640.08 117.386C640.08 117.171 640.025 116.999 639.917 116.876C639.807 116.753 639.644 116.692 639.429 116.692C639.294 116.692 639.171 116.72 639.057 116.775C638.945 116.83 638.857 116.907 638.791 117.004C638.725 117.101 638.69 117.202 638.69 117.307C638.69 117.461 638.721 117.604 638.78 117.738C638.839 117.87 638.925 117.975 639.035 118.054C639.145 118.131 639.27 118.171 639.411 118.171L639.409 118.164Z" fill="#F0F3F5"/>
<path d="M643.064 116.793C643.064 117.358 642.974 117.782 642.798 118.061C642.62 118.34 642.347 118.481 641.978 118.481C641.608 118.481 641.356 118.338 641.173 118.052C640.991 117.766 640.898 117.347 640.898 116.795C640.898 116.243 640.986 115.802 641.164 115.525C641.342 115.248 641.613 115.112 641.978 115.112C642.343 115.112 642.602 115.257 642.789 115.545C642.972 115.833 643.066 116.25 643.066 116.795L643.064 116.793ZM641.274 116.793C641.274 117.27 641.331 117.617 641.444 117.832C641.556 118.05 641.734 118.158 641.978 118.158C642.222 118.158 642.404 118.048 642.517 117.828C642.629 117.608 642.684 117.263 642.684 116.793C642.684 116.323 642.629 115.978 642.517 115.76C642.404 115.54 642.226 115.433 641.978 115.433C641.729 115.433 641.556 115.54 641.444 115.756C641.331 115.971 641.274 116.318 641.274 116.793Z" fill="#F0F3F5"/>
<path d="M638.685 102.128L640.042 99.1965H638.257V98.8536H640.438V99.1525L639.097 102.128H638.685Z" fill="#F0F3F5"/>
<path d="M643.064 100.486C643.064 101.051 642.974 101.475 642.798 101.755C642.62 102.034 642.347 102.174 641.978 102.174C641.608 102.174 641.356 102.031 641.173 101.746C640.991 101.46 640.898 101.04 640.898 100.489C640.898 99.9371 640.986 99.4954 641.164 99.2185C641.342 98.9416 641.613 98.8053 641.978 98.8053C642.343 98.8053 642.602 98.9503 642.789 99.2382C642.972 99.5261 643.066 99.9437 643.066 100.489L643.064 100.486ZM641.274 100.486C641.274 100.963 641.331 101.311 641.444 101.526C641.556 101.744 641.734 101.851 641.978 101.851C642.222 101.851 642.404 101.741 642.517 101.522C642.629 101.302 642.684 100.957 642.684 100.486C642.684 100.016 642.629 99.6712 642.517 99.4536C642.404 99.2338 642.226 99.1261 641.978 99.1261C641.729 99.1261 641.556 99.2338 641.444 99.4492C641.331 99.6646 641.274 100.012 641.274 100.486Z" fill="#F0F3F5"/>
<path d="M661.337 214.154H659.185V213.833L660.047 212.968C660.308 212.702 660.484 212.513 660.565 212.398C660.649 212.284 660.713 212.174 660.755 212.067C660.796 211.959 660.816 211.842 660.816 211.719C660.816 211.544 660.763 211.405 660.658 211.304C660.552 211.201 660.405 211.15 660.216 211.15C660.08 211.15 659.952 211.172 659.829 211.218C659.708 211.262 659.572 211.344 659.424 211.462L659.226 211.209C659.53 210.959 659.857 210.834 660.214 210.834C660.521 210.834 660.763 210.913 660.937 211.069C661.111 211.227 661.199 211.438 661.199 211.704C661.199 211.913 661.139 212.117 661.023 212.319C660.906 212.521 660.689 212.779 660.368 213.091L659.651 213.792V213.809H661.335V214.154H661.337Z" fill="#F0F3F5"/>
<path d="M663.979 212.513C663.979 213.08 663.889 213.502 663.711 213.781C663.533 214.06 663.26 214.2 662.893 214.2C662.525 214.2 662.27 214.058 662.088 213.772C661.903 213.486 661.811 213.066 661.811 212.515C661.811 211.963 661.901 211.522 662.077 211.245C662.255 210.968 662.525 210.831 662.89 210.831C663.255 210.831 663.515 210.977 663.7 211.264C663.884 211.552 663.977 211.97 663.977 212.515L663.979 212.513ZM662.189 212.513C662.189 212.99 662.244 213.337 662.356 213.552C662.468 213.77 662.646 213.877 662.893 213.877C663.139 213.877 663.319 213.768 663.431 213.548C663.544 213.328 663.599 212.983 663.599 212.513C663.599 212.042 663.544 211.697 663.431 211.48C663.321 211.26 663.141 211.152 662.893 211.152C662.644 211.152 662.468 211.26 662.356 211.475C662.244 211.691 662.189 212.038 662.189 212.513Z" fill="#F0F3F5"/>
<path d="M666.585 214.154H664.432V213.833L665.295 212.968C665.558 212.702 665.73 212.513 665.816 212.398C665.899 212.284 665.961 212.174 666.005 212.067C666.047 211.959 666.066 211.842 666.066 211.719C666.066 211.544 666.014 211.405 665.908 211.304C665.802 211.201 665.655 211.15 665.466 211.15C665.33 211.15 665.2 211.172 665.079 211.218C664.956 211.262 664.822 211.344 664.672 211.462L664.477 211.209C664.778 210.959 665.105 210.834 665.462 210.834C665.769 210.834 666.011 210.913 666.185 211.069C666.361 211.227 666.447 211.438 666.447 211.704C666.447 211.913 666.39 212.117 666.273 212.319C666.156 212.521 665.939 212.779 665.618 213.091L664.901 213.792V213.809H666.585V214.154Z" fill="#F0F3F5"/>
<path d="M668.432 214.154H668.069V211.82C668.069 211.627 668.075 211.442 668.086 211.269C668.055 211.3 668.02 211.333 667.981 211.368C667.941 211.403 667.763 211.548 667.446 211.805L667.25 211.55L668.117 210.88H668.432V214.154Z" fill="#F0F3F5"/>
<path d="M695.822 214.154H693.67V213.833L694.532 212.968C694.793 212.702 694.969 212.513 695.051 212.398C695.134 212.284 695.198 212.174 695.24 212.067C695.282 211.959 695.301 211.842 695.301 211.719C695.301 211.544 695.248 211.405 695.143 211.304C695.037 211.201 694.89 211.15 694.701 211.15C694.565 211.15 694.437 211.172 694.314 211.218C694.193 211.262 694.057 211.344 693.909 211.462L693.711 211.209C694.015 210.959 694.343 210.834 694.699 210.834C695.007 210.834 695.248 210.913 695.422 211.069C695.596 211.227 695.684 211.438 695.684 211.704C695.684 211.913 695.625 212.117 695.508 212.319C695.391 212.521 695.174 212.779 694.853 213.091L694.136 213.792V213.809H695.82V214.154H695.822Z" fill="#F0F3F5"/>
<path d="M698.464 212.513C698.464 213.08 698.374 213.502 698.196 213.781C698.018 214.06 697.745 214.2 697.378 214.2C697.011 214.2 696.755 214.058 696.573 213.772C696.388 213.486 696.296 213.066 696.296 212.515C696.296 211.963 696.386 211.522 696.562 211.245C696.74 210.968 697.011 210.831 697.376 210.831C697.741 210.831 698 210.977 698.185 211.264C698.369 211.552 698.462 211.97 698.462 212.515L698.464 212.513ZM696.674 212.513C696.674 212.99 696.729 213.337 696.841 213.552C696.953 213.77 697.132 213.877 697.378 213.877C697.624 213.877 697.804 213.768 697.917 213.548C698.029 213.328 698.084 212.983 698.084 212.513C698.084 212.042 698.029 211.697 697.917 211.48C697.807 211.26 697.626 211.152 697.378 211.152C697.129 211.152 696.953 211.26 696.841 211.475C696.729 211.691 696.674 212.038 696.674 212.513Z" fill="#F0F3F5"/>
<path d="M701.068 214.154H698.915V213.833L699.777 212.968C700.041 212.702 700.213 212.513 700.299 212.398C700.382 212.284 700.444 212.174 700.488 212.067C700.529 211.959 700.549 211.842 700.549 211.719C700.549 211.544 700.496 211.405 700.391 211.304C700.285 211.203 700.138 211.15 699.949 211.15C699.813 211.15 699.683 211.172 699.562 211.218C699.441 211.262 699.305 211.344 699.155 211.462L698.959 211.209C699.261 210.959 699.588 210.834 699.944 210.834C700.252 210.834 700.494 210.913 700.668 211.069C700.844 211.227 700.93 211.438 700.93 211.704C700.93 211.913 700.872 212.117 700.756 212.319C700.639 212.521 700.422 212.779 700.101 213.091L699.384 213.792V213.809H701.068V214.154Z" fill="#F0F3F5"/>
<path d="M703.692 214.154H701.539V213.833L702.401 212.968C702.665 212.702 702.839 212.513 702.923 212.398C703.006 212.284 703.068 212.174 703.112 212.067C703.153 211.959 703.173 211.842 703.173 211.719C703.173 211.544 703.12 211.405 703.015 211.304C702.909 211.201 702.762 211.15 702.573 211.15C702.437 211.15 702.309 211.172 702.186 211.218C702.065 211.262 701.929 211.344 701.779 211.462L701.581 211.209C701.882 210.959 702.212 210.834 702.569 210.834C702.874 210.834 703.118 210.913 703.292 211.069C703.466 211.227 703.554 211.438 703.554 211.704C703.554 211.913 703.494 212.117 703.38 212.319C703.263 212.521 703.043 212.779 702.725 213.091L702.008 213.792V213.809H703.692V214.154Z" fill="#F0F3F5"/>
<path d="M730.308 214.154H728.155V213.833L729.017 212.968C729.278 212.702 729.452 212.513 729.536 212.398C729.619 212.284 729.683 212.174 729.725 212.067C729.767 211.959 729.786 211.842 729.786 211.719C729.786 211.544 729.734 211.405 729.626 211.304C729.518 211.203 729.373 211.15 729.186 211.15C729.05 211.15 728.92 211.172 728.799 211.218C728.678 211.262 728.542 211.344 728.392 211.462L728.194 211.209C728.496 210.959 728.825 210.834 729.179 210.834C729.487 210.834 729.729 210.913 729.903 211.069C730.079 211.227 730.165 211.438 730.165 211.704C730.165 211.913 730.107 212.117 729.989 212.319C729.872 212.521 729.654 212.779 729.336 213.091L728.619 213.792V213.809H730.303V214.154H730.308Z" fill="#F0F3F5"/>
<path d="M732.949 212.513C732.949 213.08 732.861 213.502 732.683 213.781C732.505 214.06 732.232 214.2 731.863 214.2C731.493 214.2 731.241 214.058 731.058 213.772C730.876 213.486 730.783 213.066 730.783 212.515C730.783 211.963 730.873 211.522 731.049 211.245C731.227 210.968 731.5 210.831 731.863 210.831C732.226 210.831 732.487 210.977 732.674 211.264C732.857 211.552 732.951 211.97 732.951 212.515L732.949 212.513ZM731.157 212.513C731.157 212.99 731.214 213.337 731.326 213.552C731.438 213.77 731.617 213.877 731.861 213.877C732.105 213.877 732.287 213.768 732.399 213.548C732.512 213.328 732.567 212.983 732.567 212.513C732.567 212.042 732.512 211.697 732.399 211.48C732.287 211.26 732.109 211.152 731.861 211.152C731.612 211.152 731.438 211.26 731.326 211.475C731.214 211.691 731.157 212.038 731.157 212.513Z" fill="#F0F3F5"/>
<path d="M735.553 214.154H733.401V213.833L734.263 212.968C734.526 212.702 734.7 212.513 734.784 212.398C734.867 212.284 734.929 212.174 734.973 212.067C735.015 211.959 735.034 211.842 735.034 211.719C735.034 211.544 734.982 211.405 734.876 211.304C734.771 211.201 734.623 211.15 734.434 211.15C734.298 211.15 734.17 211.172 734.047 211.218C733.924 211.262 733.79 211.344 733.64 211.462L733.442 211.209C733.744 210.959 734.073 210.834 734.43 210.834C734.735 210.834 734.979 210.913 735.153 211.069C735.327 211.227 735.415 211.438 735.415 211.704C735.415 211.913 735.355 212.117 735.241 212.319C735.125 212.521 734.905 212.779 734.586 213.091L733.869 213.792V213.809H735.553V214.154Z" fill="#F0F3F5"/>
<path d="M738.052 211.651C738.052 211.86 737.992 212.031 737.876 212.163C737.759 212.295 737.592 212.385 737.379 212.429V212.447C737.641 212.48 737.836 212.563 737.962 212.697C738.089 212.831 738.153 213.007 738.153 213.225C738.153 213.537 738.045 213.776 737.827 213.946C737.612 214.115 737.304 214.198 736.904 214.198C736.732 214.198 736.572 214.185 736.429 214.159C736.284 214.132 736.145 214.086 736.009 214.02V213.666C736.15 213.737 736.301 213.789 736.462 213.827C736.622 213.864 736.774 213.882 736.917 213.882C737.484 213.882 737.766 213.66 737.766 213.216C737.766 212.818 737.454 212.62 736.829 212.62H736.506V212.299H736.834C737.089 212.299 737.293 212.245 737.441 212.13C737.59 212.018 737.665 211.862 737.665 211.662C737.665 211.502 737.61 211.376 737.5 211.286C737.39 211.196 737.24 211.15 737.054 211.15C736.911 211.15 736.774 211.17 736.649 211.207C736.521 211.247 736.376 211.317 736.214 211.423L736.024 211.172C736.159 211.067 736.312 210.983 736.491 210.922C736.666 210.86 736.851 210.831 737.045 210.831C737.364 210.831 737.61 210.904 737.786 211.049C737.962 211.194 738.05 211.394 738.05 211.649L738.052 211.651Z" fill="#F0F3F5"/>
<path opacity="0.34" d="M750.982 109.545H649.572V125.968H750.982V109.545Z" fill="#F0F3F5"/>
<path opacity="0.34" d="M750.982 142.391H649.572V158.814H750.982V142.391Z" fill="#F0F3F5"/>
<path opacity="0.34" d="M750.982 175.239H649.572V191.662H750.982V175.239Z" fill="#F0F3F5"/>
<path d="M695.144 109.545H649.572V112.167H695.144V109.545Z" fill="#EBF4FB"/>
<path d="M727.854 116.446H649.572V119.07H727.854V116.446Z" fill="#50545B"/>
<path d="M677.473 123.346H649.572V125.968H677.473V123.346Z" fill="#01D0FE"/>
<path d="M731.834 142.391H649.572V145.013H731.834V142.391Z" fill="#EBF4FB"/>
<path d="M683.374 149.294H649.572V151.915H683.374V149.294Z" fill="#50545B"/>
<path d="M717.18 156.194H649.572V158.816H717.18V156.194Z" fill="#01D0FE"/>
<path d="M683.374 175.45H649.572V178.074H683.374V175.45Z" fill="#EBF4FB"/>
<path d="M717.18 182.35H649.572V184.972H717.18V182.35Z" fill="#50545B"/>
<path d="M705.372 189.253H649.572V191.875H705.372V189.253Z" fill="#01D0FE"/>
<path d="M585.678 500.402L596.15 532.151L609.16 530.195L604.264 497.609L585.678 500.402Z" fill="#FDD7C5"/>
<path d="M594.381 529.188L592.775 541.546C592.55 543.273 593.915 544.803 595.684 544.803H618.199C620.878 544.803 622.57 541.968 621.271 539.66L610.514 529.188C610.514 529.188 604.721 526.485 600.088 531.12C599.025 532.184 594.383 529.188 594.383 529.188H594.381Z" fill="#F9C56B"/>
<path d="M603.897 532.707C603.466 532.707 603.077 532.408 602.98 531.968C602.868 531.461 603.189 530.962 603.697 530.85L612.278 528.966C612.782 528.852 613.287 529.175 613.397 529.683C613.509 530.191 613.188 530.689 612.681 530.801L604.099 532.685C604.031 532.7 603.963 532.707 603.897 532.707Z" fill="#F0F3F5"/>
<path d="M605.156 535.588C604.723 535.588 604.336 535.289 604.24 534.849C604.128 534.342 604.448 533.843 604.956 533.731L613.538 531.848C614.034 531.733 614.544 532.056 614.656 532.564C614.768 533.072 614.448 533.57 613.94 533.683L605.358 535.566C605.292 535.581 605.224 535.588 605.156 535.588Z" fill="#F0F3F5"/>
<path d="M604.47 529.881C602.875 529.881 601.312 529.421 600.229 528.32C600.077 528.167 599.908 527.975 599.792 527.716C599.422 526.894 599.807 525.896 600.723 525.283C601.594 524.703 602.686 524.472 603.716 524.648C605.02 524.872 606.802 525.797 607.899 527.03C608.923 526.501 610.123 526.292 611.261 526.466C611.575 526.514 611.845 526.72 611.975 527.011C612.105 527.303 612.078 527.639 611.903 527.907C610.982 529.316 609.105 529.911 607.545 529.327C606.593 529.676 605.525 529.878 604.47 529.878V529.881ZM601.58 527.015C602.576 528.015 604.4 528.186 606.017 527.824C605.268 527.191 604.233 526.644 603.4 526.501C602.835 526.402 602.242 526.531 601.765 526.848C601.684 526.903 601.62 526.964 601.58 527.015Z" fill="#F0F3F5"/>
<path d="M523.125 205.126L514.508 207.375C507.302 209.256 502.329 216.077 502.551 223.765C503.096 242.567 502.171 277.424 501.09 283.094C499.828 289.7 496.358 317.278 496.358 317.278C496.358 317.278 509.221 315.99 511.357 316.052C513.493 316.113 523.125 205.124 523.125 205.124V205.126Z" fill="#F0F3F5"/>
<path d="M511.113 500.485L514.583 535.021L528.474 536.032L530.957 501.931L511.113 500.485Z" fill="#FDD7C5"/>
<path d="M528.883 532.553V544.884H495.272V541.675C495.272 539.256 496.521 537.008 498.575 535.729L513.291 526.573C513.291 526.573 519.528 524.705 519.875 527.32C520.222 529.936 520.829 532.131 522.257 532.272C523.686 532.412 529.274 532.553 528.883 532.553Z" fill="#F9C56B"/>
<path d="M597.655 406.721C590.089 338.621 562.344 273.884 562.344 273.884L514.702 273.602C514.702 273.602 508.348 291.537 501.997 332.268C495.644 372.997 511.339 517.605 511.339 517.605C511.339 517.605 511.366 517.737 511.418 517.978H530.821C538.601 462.117 535.254 336.378 535.254 336.378H539.737L589.902 517.888L607.558 516.207C607.558 516.207 605.222 474.819 597.655 406.719V406.721Z" fill="#D29CFF"/>
<path d="M507.043 534.612C506.937 534.612 506.83 534.595 506.724 534.555L502.305 532.96C501.817 532.784 501.564 532.245 501.74 531.757C501.916 531.27 502.454 531.017 502.942 531.193L507.362 532.788C507.849 532.964 508.102 533.502 507.926 533.99C507.788 534.373 507.428 534.61 507.043 534.61V534.612Z" fill="#F0F3F5"/>
<path d="M504.713 531.74C503.067 531.74 501.454 531.265 500.338 530.131C500.184 529.977 500.01 529.78 499.89 529.511C499.516 528.678 499.909 527.659 500.846 527.035C501.742 526.437 502.87 526.2 503.924 526.382C505.278 526.615 507.131 527.58 508.26 528.861C509.322 528.298 510.55 528.083 511.752 528.27C512.069 528.318 512.337 528.525 512.467 528.815C512.596 529.105 512.57 529.443 512.394 529.711C511.447 531.162 509.509 531.777 507.902 531.166C506.915 531.531 505.806 531.74 504.713 531.74ZM501.667 528.804C501.667 528.804 501.672 528.808 501.674 528.81C502.733 529.885 504.685 530.059 506.399 529.656C505.617 528.975 504.513 528.386 503.608 528.232C503.015 528.129 502.388 528.263 501.889 528.597C501.788 528.665 501.711 528.744 501.67 528.804H501.667Z" fill="#F0F3F5"/>
<path d="M517.504 206.531L510.893 224.213C508.049 229.324 507.111 235.326 508.256 241.095L514.702 273.596L562.344 273.884C562.344 273.884 576.356 233.68 572.62 221.782C570.48 214.965 564.904 208.15 560.533 203.57C557.142 200.019 552.321 198.329 547.525 199.024L517.504 206.531Z" fill="#F0F3F5"/>
<path d="M513.781 273.778L507.335 241.277C506.149 235.287 507.12 229.065 510.074 223.756L511.715 224.67C508.977 229.59 508.076 235.359 509.177 240.913L515.623 273.413L513.781 273.778Z" fill="#C6E0F5"/>
<path d="M521.176 197.745C527.846 198.334 539.298 199.052 546.126 194.927C552.954 190.802 565.667 187.774 558.43 182.311C551.193 176.847 547.503 177.102 548.728 173.061C549.952 169.019 560.582 148.054 542.559 144.536C524.536 141.017 504.883 158.196 501.716 171.136C498.549 184.075 510.684 179.935 509.236 184.341C507.786 188.748 504.437 191.734 508.392 193.916C512.348 196.099 516.39 197.323 521.176 197.745Z" fill="#15141A"/>
<path d="M536.566 159.31L541.59 207.823C541.59 207.823 528.83 220.938 525.501 202.092C525.426 201.67 521.618 185.088 521.618 185.088C521.618 185.088 517.666 160.69 536.566 159.31Z" fill="#FDD7C5"/>
<path d="M537.55 176.636L522.292 171.54C520.503 178.203 521.62 185.088 521.62 185.088C521.62 185.088 523.398 192.822 524.547 197.861C534.687 191.846 537.553 176.639 537.553 176.639L537.55 176.636Z" fill="#EFAF9B"/>
<path d="M537.994 149.81C537.994 149.81 558.05 148.43 561.445 145.208C566.155 140.74 563.594 129.976 556.435 129.273C549.275 128.572 539.135 134.807 537.992 149.81H537.994Z" fill="#15141A"/>
<path d="M533.92 183.831C531.452 187.152 525.413 193.512 519.912 192.644C511.359 191.295 508.291 173.762 508.929 167.253C509.566 160.743 509.68 152.869 524.193 152.32C538.704 151.77 531.336 159.919 531.336 159.919C531.336 159.919 532.16 164.927 534.373 165.802C536.588 166.677 547.057 166.149 533.92 183.829V183.831Z" fill="#FDD7C5"/>
<path d="M516.499 178.133C516.469 178.133 516.438 178.133 516.407 178.129C514.801 177.97 513.289 176.223 513.003 175.876C512.757 175.575 512.719 175.155 512.911 174.817C512.924 174.795 514.324 172.239 513.766 168.96C513.289 166.158 509.649 166.266 509.485 166.27C509.003 166.292 508.531 165.888 508.509 165.371C508.487 164.855 508.887 164.418 509.405 164.393C511.278 164.31 515.012 165.092 515.618 168.646C516.121 171.595 515.319 174.019 514.849 175.116C515.383 175.654 516.102 176.212 516.592 176.261C517.108 176.311 517.484 176.77 517.436 177.287C517.387 177.773 516.981 178.135 516.502 178.135L516.499 178.133Z" fill="#15141A"/>
<path d="M521.156 180.564C520.894 180.564 520.629 180.537 520.356 180.482C519.848 180.381 519.519 179.887 519.62 179.377C519.721 178.869 520.207 178.537 520.725 178.641C523.2 179.137 525.338 175.124 525.36 175.083C525.6 174.623 526.169 174.443 526.626 174.681C527.087 174.92 527.265 175.485 527.028 175.946C526.922 176.149 524.593 180.561 521.158 180.561L521.156 180.564Z" fill="#EFAF9B"/>
<path d="M522.088 167.881C521.927 166.927 522.354 166.059 523.042 165.945C523.73 165.828 524.417 166.51 524.577 167.464C524.738 168.417 524.311 169.285 523.623 169.4C522.934 169.516 522.248 168.835 522.088 167.881Z" fill="#15141A"/>
<path d="M510.353 170.263C510.192 169.31 510.619 168.441 511.307 168.327C511.995 168.213 512.681 168.892 512.842 169.846C513.002 170.8 512.576 171.668 511.887 171.782C511.199 171.896 510.513 171.217 510.353 170.263Z" fill="#15141A"/>
<path d="M543.005 163.857C543.077 164.163 543.134 164.47 543.178 164.778C541.508 165.657 539.673 166.363 537.695 166.835C527.777 169.197 518.262 164.919 516.442 157.278C515.987 155.368 516.055 153.427 516.572 151.557C534.052 146.272 541.091 155.814 543.005 163.857Z" fill="#15141A"/>
<path d="M535.188 170.4C535.83 173.094 538.535 174.757 541.229 174.116C543.923 173.474 545.587 170.769 544.945 168.075C544.304 165.38 541.598 163.717 538.904 164.358C536.21 165 534.546 167.705 535.188 170.4Z" fill="#FDD7C5"/>
<path d="M561.737 183.689C561.698 183.689 561.658 183.686 561.619 183.682C561.104 183.616 560.74 183.148 560.803 182.634C560.948 181.491 559.786 180.416 558.749 179.845C558.335 179.616 557.902 179.416 557.47 179.216C556.404 178.722 555.3 178.21 554.402 177.311C553.013 175.922 552.336 173.74 552.545 171.325C552.69 169.666 553.193 168.099 553.683 166.582C553.782 166.275 553.881 165.967 553.978 165.659C555.248 161.583 555.553 158.394 554.936 155.623C554.301 152.764 552.18 149.548 548.877 148.806C548.371 148.691 548.053 148.19 548.167 147.683C548.281 147.177 548.785 146.859 549.288 146.973C552.844 147.771 555.85 151.082 556.769 155.214C557.674 159.291 556.632 163.446 555.771 166.217C555.672 166.532 555.571 166.844 555.472 167.158C554.995 168.639 554.545 170.039 554.417 171.487C554.257 173.347 554.734 174.986 555.731 175.982C556.395 176.645 557.303 177.065 558.263 177.511C558.733 177.731 559.206 177.951 559.656 178.199C561.285 179.096 562.931 180.794 562.669 182.869C562.61 183.344 562.205 183.691 561.737 183.691V183.689Z" fill="#15141A"/>
<path d="M559.542 202.419C559.542 202.419 544.969 219.793 557.861 237.73C566.036 249.105 581.202 258.678 591.203 264.159C596.609 267.121 603.385 265.355 606.666 260.135L622.317 234.928L612.228 216.994L596.535 236.612L559.542 202.421V202.419Z" fill="#F0F3F5"/>
<path d="M596.246 235.962L592.41 241.075L593.913 242.203L597.75 237.09L596.246 235.962Z" fill="#C6E0F5"/>
<path d="M611.107 218.114L635.769 190.651L647.902 181.269C648.902 180.495 650.199 181.75 649.458 182.777L644.175 190.09L659.868 185.047C659.868 185.047 663.791 183.366 665.472 184.486C667.153 185.607 661.549 193.455 659.308 196.257C657.066 199.059 639.69 203.544 639.69 203.544L618.39 241.658C618.39 241.658 611.103 237.174 611.103 218.117L611.107 218.114Z" fill="#FDD7C5"/>
<path d="M558.564 237.131L557.181 238.403L570.072 252.416L571.455 251.144L558.564 237.131Z" fill="#C6E0F5"/>
<path d="M608.182 517.148C607.732 517.148 607.334 516.822 607.257 516.363C607.092 515.378 590.775 417.279 584.955 373.214C581.795 349.297 554.178 274.958 553.898 274.211C553.718 273.725 553.964 273.185 554.452 273.002C554.934 272.822 555.479 273.068 555.661 273.554C555.94 274.303 583.632 348.84 586.819 372.968C592.636 417.002 608.947 515.069 609.112 516.055C609.197 516.567 608.85 517.051 608.34 517.137C608.288 517.145 608.237 517.15 608.184 517.15L608.182 517.148Z" fill="#F0F3F5"/>
<path d="M528.715 518.638C528.202 518.638 527.783 518.225 527.776 517.71L525.253 332.747C525.246 332.228 525.661 331.802 526.178 331.795H526.191C526.703 331.795 527.123 332.209 527.13 332.723L529.653 517.686C529.66 518.205 529.244 518.631 528.728 518.638H528.715Z" fill="#F0F3F5"/>
<path d="M562.344 300.044C562.249 300.044 562.155 300.031 562.06 300C545.704 294.836 542.941 275.044 542.917 274.844C542.849 274.33 543.211 273.859 543.726 273.791C544.242 273.719 544.71 274.086 544.778 274.6C544.802 274.787 547.424 293.407 562.625 298.209C563.12 298.365 563.394 298.893 563.238 299.387C563.113 299.787 562.742 300.044 562.344 300.044Z" fill="#F0F3F5"/>
<path d="M492.501 363.89L488.998 352.809C488.629 351.644 488.695 350.385 489.183 349.264L493.769 338.716L496.439 315.21L505.52 314.676L499.643 340.318L501.78 348.33V354.853C501.78 355.523 501.061 355.95 500.472 355.626C499.589 355.141 498.898 354.367 498.514 353.435L497.705 351.471L497.105 359.885L499.846 367.138C500.27 368.261 500.206 369.511 499.67 370.586L499.309 371.304L492.499 363.892L492.501 363.89Z" fill="#FDD7C5"/>
<path d="M650.208 197.815C650.098 197.815 649.986 197.795 649.878 197.756C649.392 197.573 649.146 197.033 649.328 196.547C650.539 193.319 651.366 189.631 651.373 189.594C651.487 189.086 651.988 188.769 652.494 188.882C652.999 188.994 653.32 189.495 653.208 190.002C653.173 190.158 652.346 193.853 651.089 197.208C650.948 197.586 650.59 197.819 650.21 197.819L650.208 197.815Z" fill="#EFAF9B"/>
<path d="M652.288 192.193C651.954 192.193 651.631 192.015 651.462 191.701C651.216 191.244 651.385 190.675 651.842 190.429C657.396 187.431 661.356 186.255 663.615 186.932C664.555 187.214 664.901 187.741 664.984 187.895C665.23 188.352 665.059 188.921 664.602 189.167C664.177 189.398 663.654 189.264 663.386 188.877C663.239 188.767 661.189 187.519 652.737 192.081C652.594 192.158 652.442 192.193 652.291 192.193H652.288Z" fill="#EFAF9B"/>
<path d="M284.008 133.066V51.5541H231.54V133.066H284.008Z" fill="#880AF0"/>
<path d="M268.704 88.1908H246.842C244.862 88.1908 243.249 86.5799 243.249 84.5976C243.249 82.6154 244.86 81.0045 246.842 81.0045H268.704C270.684 81.0045 272.297 82.6176 272.297 84.5976C272.297 86.5777 270.686 88.1908 268.704 88.1908ZM246.842 81.9451C245.378 81.9451 244.189 83.1362 244.189 84.5998C244.189 86.0635 245.38 87.2524 246.842 87.2524H268.704C270.167 87.2524 271.356 86.0613 271.356 84.5998C271.356 83.1384 270.165 81.9451 268.704 81.9451H246.842Z" fill="#F0F3F5"/>
<path d="M268.704 98.4976H246.842C244.862 98.4976 243.249 96.8868 243.249 94.9045C243.249 92.9223 244.86 91.3114 246.842 91.3114H268.704C270.684 91.3114 272.297 92.9223 272.297 94.9045C272.297 96.8868 270.686 98.4976 268.704 98.4976ZM246.842 92.252C245.378 92.252 244.189 93.4431 244.189 94.9045C244.189 96.3659 245.38 97.5592 246.842 97.5592H268.704C270.167 97.5592 271.356 96.3681 271.356 94.9045C271.356 93.4409 270.165 92.252 268.704 92.252H246.842Z" fill="#F0F3F5"/>
<path d="M268.704 108.334H246.842C245.117 108.334 243.719 106.936 243.719 105.211C243.719 103.486 245.117 102.089 246.842 102.089H268.704C270.429 102.089 271.827 103.486 271.827 105.211C271.827 106.936 270.429 108.334 268.704 108.334Z" fill="#9FEEFF"/>
<path d="M257.773 69.6076C256.136 69.6076 254.806 68.2802 254.806 66.6408V66.3265C254.806 64.6893 256.133 63.3597 257.773 63.3597C259.41 63.3597 260.74 64.6871 260.74 66.3265V66.6408C260.74 68.278 259.412 69.6076 257.773 69.6076Z" fill="#F0F3F5"/>
<path d="M250.745 105.673C250.485 105.673 250.277 105.464 250.274 105.205C250.274 104.945 250.483 104.735 250.743 104.735L264.801 104.684C265.06 104.684 265.269 104.893 265.271 105.152C265.271 105.411 265.062 105.622 264.803 105.625L250.745 105.675V105.673Z" fill="#F0F3F5"/>
<path d="M656.271 259.753H651.673V263.972H656.271V259.753Z" fill="#5357F5"/>
<path d="M679.592 262.216H657.899C657.64 262.216 657.429 262.005 657.429 261.746C657.429 261.487 657.64 261.276 657.899 261.276H679.592C679.851 261.276 680.062 261.487 680.062 261.746C680.062 262.005 679.851 262.216 679.592 262.216Z" fill="#50545B"/>
<path d="M690.384 259.753H685.785V263.972H690.384V259.753Z" fill="#01D0FE"/>
<path d="M710.89 262.216H692.011C691.751 262.216 691.54 262.005 691.54 261.746C691.54 261.487 691.751 261.276 692.011 261.276H710.89C711.15 261.276 711.361 261.487 711.361 261.746C711.361 262.005 711.15 262.216 710.89 262.216Z" fill="#50545B"/>
<path d="M722.386 259.753H717.787V263.972H722.386V259.753Z" fill="#F0F3F5"/>
<path d="M742.892 262.216H724.012C723.753 262.216 723.542 262.005 723.542 261.746C723.542 261.487 723.753 261.276 724.012 261.276H742.892C743.151 261.276 743.362 261.487 743.362 261.746C743.362 262.005 743.151 262.216 742.892 262.216Z" fill="#50545B"/>
<path d="M756.114 242.625H752.61V254.151H756.114V242.625Z" fill="white" fill-opacity="0.5"/>
<path d="M749.396 238.919H745.896V254.151H749.396V238.919Z" fill="#5357F5"/>
<path d="M742.682 244.923H739.176V254.151H742.682V244.923Z" fill="white" fill-opacity="0.5"/>
<path d="M735.966 232.698H732.46V254.151H735.966V232.698Z" fill="#01D0FE"/>
<path d="M729.248 236.579H725.744V254.153H729.248V236.579Z" fill="white" fill-opacity="0.5"/>
<path d="M722.53 230.338H719.028V254.153H722.53V230.338Z" fill="#01D0FE"/>
<path d="M715.816 244.558H712.312V254.153H715.816V244.558Z" fill="#5357F5"/>
<path d="M709.096 238.555H705.598V254.153H709.096V238.555Z" fill="#01D0FE"/>
<path d="M702.38 233.52H698.88V254.153H702.38V233.52Z" fill="#5357F5"/>
<path d="M695.668 227.991H692.16V254.153H695.668V227.991Z" fill="white" fill-opacity="0.5"/>
<path d="M688.95 231.727H685.446V254.153H688.95V231.727Z" fill="#01D0FE"/>
<path d="M682.234 224.872H678.728V254.153H682.234V224.872Z" fill="#5357F5"/>
<path d="M675.516 236.19H672.014V254.153H675.516V236.19Z" fill="white" fill-opacity="0.5"/>
<path d="M668.8 239.117H665.298V254.151H668.8V239.117Z" fill="#01D0FE"/>
<path d="M662.084 230.997H658.58V254.153H662.084V230.997Z" fill="#5357F5"/>
<path d="M655.368 233.876H651.864V254.151H655.368V233.876Z" fill="white" fill-opacity="0.5"/>
<path d="M132.954 303.943L173.762 386.184L189.794 391.806L185.631 405.963L155.44 404.297L129.416 308.525L132.954 303.943Z" fill="#6F72F9"/>
<path d="M133.035 450.543L84.2822 546.144L85.9542 546.997L134.707 451.396L133.035 450.543Z" fill="#50545B"/>
<path d="M148.593 450.503L146.921 451.356L195.674 546.957L197.346 546.104L148.593 450.503Z" fill="#50545B"/>
<path d="M141.755 451.243H139.875V548.376H141.755V451.243Z" fill="#50545B"/>
<path d="M96.5791 453.434H176.217C180.357 453.434 183.713 450.078 183.713 445.938C183.713 441.798 180.357 438.442 176.217 438.442H96.5791C92.4388 438.442 89.083 441.798 89.083 445.938C89.083 450.078 92.4388 453.434 96.5791 453.434Z" fill="#F0F3F5"/>
<path d="M126.346 418.751C116.406 424.819 100.405 449.872 89.3203 415.516L71.302 321.856C69.4274 305.411 85.1778 297.607 101.948 290.755L126.476 298.969C130.877 300.444 134.093 303.813 135.183 308.092L155.212 386.798C156.776 392.949 153.669 399.735 147.584 403.449L126.346 418.751Z" fill="#9EA1FE"/>
<path d="M194.108 542.357V549.002H224.573C224.573 549.002 219.716 539.985 209.561 538.087C199.406 536.188 194.108 542.359 194.108 542.359V542.357Z" fill="#15141A"/>
<path d="M150.57 402.838L227.232 409.616C232.737 410.101 237.293 414.101 238.491 419.496L262.06 525.738L256.806 528.389C256.806 528.389 261.803 533.386 275.05 537.959C285.067 541.418 287.412 546.504 287.412 546.504L243.943 545.673L242.183 538.078L215.024 442.707L154.983 439.859L150.568 402.838H150.57Z" fill="#15141A"/>
<path d="M98.2712 424.052C98.3789 421.753 99.2646 419.562 100.682 417.749C105.631 411.422 119.889 395.428 139.628 392.395C151.381 390.591 159.664 389.474 165.123 388.8C170.331 388.156 175.311 391.105 177.261 395.979C183.763 412.235 198.175 454.172 211.326 533.338C211.662 535.359 206.502 538.093 201.089 540.374C194.828 543.014 187.651 539.704 185.587 533.23L157.801 445.986C156.051 440.492 150.518 437.11 144.837 438.103C128.445 440.971 97.3372 443.835 98.2712 424.052Z" fill="#50545B"/>
<path d="M153.117 438.758C152.702 438.758 152.32 438.479 152.21 438.057L148.775 424.94C148.643 424.439 148.944 423.924 149.447 423.792C149.946 423.658 150.463 423.962 150.595 424.463L154.029 437.58C154.161 438.081 153.86 438.596 153.359 438.728C153.28 438.75 153.199 438.758 153.12 438.758H153.117Z" fill="#880AF0"/>
<path d="M126.865 453.434H93.4452C87.8479 453.434 82.9604 449.645 81.5649 444.226L71.5349 405.269C71.5349 405.269 110.648 392.38 123.049 403.234C135.451 414.088 126.865 453.436 126.865 453.436V453.434Z" fill="#C6E0F5"/>
<path d="M214.675 398.469L187.297 390.973L183.548 405.756L214.363 409.712L214.675 398.469Z" fill="#FDD7C5"/>
<path d="M206.896 404.291L209.748 415.934L215.427 426.489C215.981 427.52 217.363 427.746 218.218 426.946C219.24 425.99 219.521 424.483 218.914 423.221L215.697 416.547L215.108 406.425L206.896 404.289V404.291Z" fill="#FDD7C5"/>
<path d="M211.99 414.123L219.481 420.933L223.019 427.476L223.723 431.475C223.795 431.888 223.991 432.269 224.283 432.57L224.789 433.086C225.167 433.473 225.819 433.328 225.999 432.818L226.635 430.849L227.584 431.478C228.496 431.565 229.259 430.794 229.162 429.884L227.786 416.993L226.01 410.046L217.464 400.005C215.763 398.008 212.695 397.953 210.924 399.889L206.898 404.293L211.992 414.125L211.99 414.123Z" fill="#FDD7C5"/>
<path d="M187.921 348.359H169.6C169.6 348.359 171.265 363.349 175.43 365.015C177.118 365.689 179.28 365.815 181.26 365.727C183.24 365.812 185.403 365.689 187.091 365.015C191.255 363.349 192.921 348.359 192.921 348.359H187.923H187.921Z" fill="#F0F3F5"/>
<path d="M111.719 373.691C114.426 372.234 150.028 349.957 150.028 349.957L147.529 368.696L116.923 395.138L111.716 373.693L111.719 373.691Z" fill="#FDD7C5"/>
<path d="M84.7207 300.026C75.5346 305.083 69.8142 315.078 69.8955 325.934L70.3922 393.465C70.5174 410.585 89.4456 420.032 102.251 409.367L121.298 393.507L112.866 371.95L98.8119 380.769L94.7748 310.151C94.465 304.721 90.151 300.376 84.7229 300.026H84.7207Z" fill="#6F72F9"/>
<path d="M86.9425 387.956C86.615 387.956 86.2986 387.787 86.1271 387.483C85.87 387.033 86.0261 386.459 86.4766 386.202L98.1372 379.539C98.5855 379.28 99.1613 379.438 99.4184 379.888C99.6755 380.339 99.5195 380.912 99.069 381.17L87.4084 387.833C87.2611 387.916 87.1007 387.956 86.9425 387.956Z" fill="#F0F3F5"/>
<path d="M167.358 349.506C167.912 348.983 167.567 348.051 166.806 348.018L154.429 347.469C153.504 347.427 152.599 347.73 151.885 348.319L150.184 349.721L161.468 351.363C163.611 351.675 165.78 350.992 167.358 349.506Z" fill="#EFAF9B"/>
<path d="M167.475 362.171C163.877 362.171 160.95 359.244 160.95 355.646C160.95 352.049 163.877 349.122 167.475 349.122C171.072 349.122 173.999 352.049 173.999 355.646C173.999 359.244 171.072 362.171 167.475 362.171ZM167.475 351.001C164.912 351.001 162.829 353.084 162.829 355.646C162.829 358.209 164.914 360.292 167.475 360.292C170.035 360.292 172.12 358.207 172.12 355.646C172.12 353.086 170.035 351.001 167.475 351.001Z" fill="#F0F3F5"/>
<path d="M152.109 348.291L168.688 351.154L169.228 352.539C169.72 353.796 169.189 355.222 167.993 355.851L167.125 356.308L167.47 357.42C167.857 358.668 167.277 360.009 166.105 360.584L164.161 361.538L164.345 362.2C164.69 363.441 164.09 364.753 162.925 365.305L161.976 365.755L161.563 366.406C161.134 367.078 160.42 367.518 159.625 367.595L146.362 368.878L148.313 351.077L152.113 348.293L152.109 348.291Z" fill="#FDD7C5"/>
<path d="M111.751 278.351C111.751 278.351 113.762 289.122 118.957 298.141C124.153 307.16 93.5859 296.11 93.5859 296.11L92.0849 268.64L111.751 278.351Z" fill="#FDD7C5"/>
<path d="M123.915 256.026C123.915 256.026 133.405 247.727 134.117 241.462C134.679 236.509 130.601 228.786 122.99 233.942C115.38 239.097 113.408 244.09 117.839 243.84C122.272 243.587 122.304 234.667 111.341 232.784C100.377 230.9 91.2344 231.867 94.377 243.062C97.5196 254.257 101.192 262.241 102.115 252.463C103.038 242.688 94.7704 236.495 86.4172 241.838C78.0663 247.18 76.8422 255.14 83.2373 261.096C89.6324 267.051 92.5772 281.529 92.5772 281.529L102.436 270.917C102.436 270.917 124.711 263.557 123.913 256.028L123.915 256.026Z" fill="#282965"/>
<path d="M112.912 280.916C112.912 280.916 113.235 283.742 114.11 287.907L104.937 279.848L112.91 280.916H112.912Z" fill="#EFAF9B"/>
<path d="M98.3394 271.24C94.577 264.462 98.8624 257.7 102.838 260.324C106.813 262.948 106.976 268.585 106.976 268.585C106.976 268.585 116.164 263.673 114.786 253.707C118.325 253.753 122.223 253.188 126.218 251.975L131.35 270.789L126.902 271.912L123.854 284.197L111.163 281.408C111.163 281.408 102.104 278.017 98.3416 271.24H98.3394Z" fill="#FDD7C5"/>
<path d="M120.489 259.94L119.135 258.636C121.975 255.692 125.278 256.982 125.416 257.037L124.711 258.777L125.063 257.907L124.717 258.779C124.623 258.744 122.423 257.927 120.487 259.937L120.489 259.94Z" fill="#282965"/>
<path d="M122.79 263.243C122.876 263.801 123.397 264.186 123.956 264.1C124.514 264.014 124.899 263.493 124.813 262.935C124.727 262.377 124.206 261.992 123.648 262.078C123.089 262.164 122.704 262.685 122.79 263.243Z" fill="#282965"/>
<path d="M144.733 376.417L116.001 547.562L117.855 547.873L146.586 376.728L144.733 376.417Z" fill="#50545B"/>
<path d="M618.165 376.378L616.312 376.689L645.044 547.834L646.897 547.522L618.165 376.378Z" fill="#50545B"/>
<path d="M630.668 368.087H125.979V376.994H630.668V368.087Z" fill="#F0F3F5"/>
<path d="M197.931 366.103C197.918 366.076 197.903 366.045 197.89 366.021L197.8 363.52H302.145C302.145 363.52 300.906 366.076 300.888 366.103L300.626 366.568C299.304 368.738 298.334 369.127 296.932 369.127H217.881C201.896 369.127 199.525 368.738 198.2 366.568L197.934 366.103H197.931Z" fill="#D7DFE2"/>
<path d="M236.234 366.525C236.234 366.525 236.249 366.568 236.234 366.593L235.977 366.971C235.568 367.529 235.054 367.942 234.463 368.243H205.373C202.742 368.243 200.446 367.929 199.164 366.177L198.916 365.795C198.898 365.775 198.883 365.753 198.87 365.731L198.896 364.5H236.232V366.522L236.234 366.525Z" fill="#B6C2C9"/>
<path d="M288.61 364.101H250.211V365.87H288.61V364.101Z" fill="#B6C2C9"/>
<path d="M237.867 363.701L264.926 312.817C265.642 311.47 267.308 310.384 268.649 310.384H327.956C329.297 310.384 329.809 311.472 329.092 312.817L302.033 363.701H237.864H237.867Z" fill="#D7DFE2"/>
<path d="M279.624 339.7C278.938 342.296 280.494 344.403 283.087 344.403C285.68 344.403 288.346 342.296 289.034 339.7C289.717 337.098 288.17 334.991 285.571 334.991C282.971 334.991 280.312 337.098 279.626 339.7H279.624Z" fill="#B6C2C9"/>
<path d="M163.648 56.7625H0V163.78H163.648V56.7625Z" fill="#5357F5" fill-opacity="0.5"/>
<path d="M95.0891 86.5535H68.5593V155.955H95.0891V86.5535Z" fill="#5357F5"/>
<path d="M41.6846 86.5535H15.1548V155.955H41.6846V86.5535Z" fill="#5357F5"/>
<path d="M148.182 86.5535H121.652V155.955H148.182V86.5535Z" fill="#5357F5"/>
<path d="M48.7346 76.3939H15.2647C15.0054 76.3939 14.7944 76.1829 14.7944 75.9236C14.7944 75.6643 15.0054 75.4533 15.2647 75.4533H48.7368C48.9961 75.4533 49.2071 75.6643 49.2071 75.9236C49.2071 76.1829 48.9961 76.3939 48.7368 76.3939H48.7346Z" fill="#F0F3F5"/>
<path d="M33.3138 81.3913H15.2625C15.0032 81.3913 14.7922 81.1803 14.7922 80.921C14.7922 80.6617 15.0032 80.4507 15.2625 80.4507H33.3138C33.5732 80.4507 33.7841 80.6617 33.7841 80.921C33.7841 81.1803 33.5732 81.3913 33.3138 81.3913Z" fill="#F0F3F5"/>
<path d="M45.2997 81.3913H36.9135C36.6542 81.3913 36.4432 81.1803 36.4432 80.921C36.4432 80.6617 36.6542 80.4507 36.9135 80.4507H45.2997C45.559 80.4507 45.77 80.6617 45.77 80.921C45.77 81.1803 45.559 81.3913 45.2997 81.3913Z" fill="#F0F3F5"/>
<path d="M148.379 147.911H15.2581C14.9988 147.911 14.7878 147.7 14.7878 147.441C14.7878 147.182 14.9988 146.971 15.2581 146.971H148.379C148.639 146.971 148.85 147.182 148.85 147.441C148.85 147.7 148.639 147.911 148.379 147.911Z" fill="#F0F3F5"/>
<path d="M15.272 150.924C15.0123 150.924 14.801 150.713 14.801 150.454V147.441C14.801 147.182 15.0123 146.971 15.272 146.971C15.5317 146.971 15.7429 147.182 15.7429 147.441V150.454C15.7429 150.713 15.5317 150.924 15.272 150.924Z" fill="#F0F3F5"/>
<path d="M41.8962 150.924C41.6365 150.924 41.4252 150.713 41.4252 150.454V147.441C41.4252 147.182 41.6365 146.971 41.8962 146.971C42.1559 146.971 42.3671 147.182 42.3671 147.441V150.454C42.3671 150.713 42.1559 150.924 41.8962 150.924Z" fill="#F0F3F5"/>
<path d="M68.5205 150.924C68.2608 150.924 68.0495 150.713 68.0495 150.454V147.441C68.0495 147.182 68.2608 146.971 68.5205 146.971C68.7801 146.971 68.9914 147.182 68.9914 147.441V150.454C68.9914 150.713 68.7801 150.924 68.5205 150.924Z" fill="#F0F3F5"/>
<path d="M95.1447 150.924C94.885 150.924 94.6737 150.713 94.6737 150.454V147.441C94.6737 147.182 94.885 146.971 95.1447 146.971C95.4043 146.971 95.6156 147.182 95.6156 147.441V150.454C95.6156 150.713 95.4043 150.924 95.1447 150.924Z" fill="#F0F3F5"/>
<path d="M121.769 150.924C121.509 150.924 121.298 150.713 121.298 150.454V147.441C121.298 147.182 121.509 146.971 121.769 146.971C122.029 146.971 122.24 147.182 122.24 147.441V150.454C122.24 150.713 122.029 150.924 121.769 150.924Z" fill="#F0F3F5"/>
<path d="M148.393 150.924C148.133 150.924 147.922 150.713 147.922 150.454V147.441C147.922 147.182 148.133 146.971 148.393 146.971C148.653 146.971 148.864 147.182 148.864 147.441V150.454C148.864 150.713 148.653 150.924 148.393 150.924Z" fill="#F0F3F5"/>
<path d="M147.554 85.5645C148.679 85.5645 149.591 86.4766 149.591 87.6016C149.591 88.7266 148.679 89.6386 147.554 89.6387C146.658 89.6387 145.9 89.0612 145.626 88.2588C132.757 90.6062 123.636 111.008 123.533 111.239C123.521 111.269 123.342 111.702 123.002 112.441C123.331 112.803 123.534 113.283 123.534 113.811C123.534 114.936 122.621 115.848 121.496 115.848C121.434 115.848 121.374 115.843 121.313 115.838C117.508 122.992 108.915 136.242 96.3486 138.921C94.8236 139.246 93.2807 139.408 91.7314 139.408V139.411C84.6344 139.411 77.2987 136.008 69.8486 129.249C69.5259 129.464 69.1393 129.59 68.7227 129.59C67.5973 129.59 66.6847 128.678 66.6846 127.553C66.6846 127.184 66.7835 126.838 66.9551 126.539C56.7724 117.197 47.0105 113.259 37.916 114.839C26.475 116.824 19.2289 127.133 16.8008 131.152C17.1493 131.518 17.3643 132.012 17.3643 132.557C17.3641 133.682 16.4523 134.594 15.3271 134.594C14.2018 134.594 13.2892 133.682 13.2891 132.557C13.2891 131.432 14.2017 130.52 15.3271 130.52C15.569 130.52 15.8004 130.563 16.0156 130.641C18.543 126.475 25.9879 115.955 37.7549 113.914C47.1498 112.282 57.1856 116.301 67.5967 125.854C67.9192 125.64 68.3066 125.516 68.7227 125.516C69.8481 125.516 70.7598 126.428 70.7598 127.553C70.7597 127.92 70.6612 128.263 70.4912 128.561C79.329 136.573 87.9483 139.749 96.1504 138.004C108.281 135.418 116.652 122.586 120.416 115.535C119.842 115.175 119.459 114.538 119.459 113.811C119.459 112.686 120.371 111.774 121.496 111.773C121.749 111.773 121.991 111.822 122.215 111.906C122.502 111.275 122.655 110.906 122.667 110.877C122.698 110.804 125.272 104.996 129.579 99.21C134.68 92.3547 140.157 88.289 145.536 87.3252C145.671 86.331 146.522 85.5645 147.554 85.5645Z" fill="#F0F3F5"/>
<path d="M165.169 198.916C162.662 198.916 160.631 200.949 160.631 203.454V232.472L150.043 243.06H160.631V249.918C160.631 252.426 162.662 254.457 165.169 254.457H219.932C222.437 254.457 224.47 252.426 224.47 249.918V203.456C224.47 200.951 222.439 198.918 219.932 198.918H165.169V198.916Z" fill="#5357F5"/>
<path d="M184.04 217.826C184.04 219.097 183.009 220.125 181.741 220.125C180.473 220.125 179.443 219.097 179.443 217.826C179.443 216.556 180.473 215.528 181.741 215.528C183.009 215.528 184.04 216.556 184.04 217.826Z" fill="#F0F3F5"/>
<path d="M180.592 229.325H178.293V223.576C178.293 222.307 179.324 221.277 180.592 221.277H187.491V223.576H180.592V229.325Z" fill="#F0F3F5"/>
<path d="M185.19 236.223H182.891V229.325H181.742V236.223H179.441V227.026H185.19V236.223Z" fill="#F0F3F5"/>
<path d="M185.19 222.426H179.441V229.325H185.19V222.426Z" fill="#F0F3F5"/>
<path d="M200.138 217.826C200.138 219.097 201.168 220.127 202.437 220.127C203.705 220.127 204.737 219.097 204.737 217.826C204.737 216.556 203.707 215.528 202.437 215.528C201.166 215.528 200.138 216.556 200.138 217.826Z" fill="#F0F3F5"/>
<path d="M205.887 229.324H203.586V223.576H196.688V221.275H203.586C204.854 221.275 205.887 222.305 205.887 223.576V229.324Z" fill="#F0F3F5"/>
<path d="M204.737 236.223H202.437V229.325H201.287V236.223H198.988V227.026H204.737V236.223Z" fill="#F0F3F5"/>
<path d="M204.737 222.426H198.988V229.325H204.737V222.426Z" fill="#F0F3F5"/>
<path d="M189.789 217.826C189.789 219.097 190.82 220.125 192.088 220.125C193.356 220.125 194.387 219.097 194.387 217.826C194.387 216.556 193.356 215.528 192.088 215.528C190.82 215.528 189.789 216.556 189.789 217.826Z" fill="#F0F3F5"/>
<path d="M194.389 222.426H189.789V236.223H194.389V222.426Z" fill="#F0F3F5"/>
<path d="M195.538 228.175H193.239V223.576H190.941V228.175H188.642V223.576C188.642 222.307 189.675 221.277 190.941 221.277H193.239C194.507 221.277 195.538 222.307 195.538 223.576V228.175Z" fill="#F0F3F5"/>
</g>
<defs>
<clipPath id="clip0_37_3174">
<rect width="775.738" height="549" fill="white"/>
</clipPath>
</defs>
</svg>
